<svg height="512" viewBox="0 0 32 32" width="512" xmlns="http://www.w3.org/2000/svg"><g id="Layer_2" data-name="Layer 2"><path d="m31 23h-2v-5a13 13 0 0 0 -26 0v5h-2v-5a15 15 0 0 1 30 0z"/><path d="m7.23 29h-1.23a5 5 0 0 1 -5-5v-2a5 5 0 0 1 5-5h1.23a1.8 1.8 0 0 1 1.77 1.8v8.4a1.8 1.8 0 0 1 -1.77 1.8zm-1.23-10a3 3 0 0 0 -3 3v2a3 3 0 0 0 3 3h1v-8z"/><path d="m26 29h-1.2a1.8 1.8 0 0 1 -1.8-1.8v-8.4a1.8 1.8 0 0 1 1.8-1.8h1.2a5 5 0 0 1 5 5v2a5 5 0 0 1 -5 5zm-1-2h1a3 3 0 0 0 3-3v-2a3 3 0 0 0 -3-3h-1z"/></g></svg>