<svg id="Layer_1" height="512" viewBox="0 0 512 512" width="512" xmlns="http://www.w3.org/2000/svg"><path d="m498.837 435.112-151.626-151.625c43.275-71.869 33.959-166.783-27.972-228.714-35.321-35.321-82.282-54.773-132.233-54.773s-96.912 19.452-132.234 54.773c-72.913 72.914-72.913 191.552 0 264.465 35.321 35.321 82.282 54.773 132.233 54.773 34.563 0 67.689-9.319 96.523-26.757l151.582 151.582c8.49 8.489 19.805 13.164 31.864 13.164s23.374-4.674 31.863-13.162c8.488-8.488 13.163-19.804 13.163-31.863s-4.675-23.375-13.163-31.863zm-311.831-93.1c-41.403 0-80.329-16.124-109.606-45.4-60.436-60.437-60.436-158.774 0-219.211 29.277-29.277 68.203-45.401 109.606-45.401s80.329 16.124 109.606 45.4c60.436 60.437 60.436 158.775 0 219.211-29.277 29.277-68.203 45.401-109.606 45.401zm140.954 4.42-18.278-18.279c3.27-2.85 6.461-5.818 9.558-8.915 3.104-3.104 6.066-6.299 8.907-9.563l18.283 18.284zm148.25 129.777c-2.444 2.444-5.725 3.791-9.236 3.791s-6.79-1.346-9.234-3.79l-107.153-107.151 18.47-18.472 107.153 107.152c2.444 2.444 3.791 5.724 3.791 9.235s-1.347 6.791-3.791 9.235zm-196.568-381.839c6.248 6.249 6.248 16.379 0 22.627-3.124 3.124-7.219 4.687-11.313 4.687s-8.189-1.562-11.313-4.686c-28.443-28.442-70.821-36.873-107.965-21.472-8.159 3.384-17.523-.488-20.908-8.652-3.384-8.163.489-17.523 8.652-20.908 49.143-20.376 105.214-9.226 142.847 28.404z"/></svg>