<svg id="Layer_1" enable-background="new -3 5 512 512" height="512" viewBox="-3 5 512 512" width="512" xmlns="http://www.w3.org/2000/svg"><g id="_x32__x2C__message_x2C__Email_x2C__mail_x2C__open"><g><path d="m500 217.4c0-2.9-1.4-5.7-3.6-7.5l-237.3-193.7c-3.6-2.9-8.7-2.9-12.2 0l-237.3 193.7c-2.2 1.7-3.6 4.6-3.6 7.5v281c.1 5.3 4.5 9.6 9.7 9.6h474.6c5.3 0 9.7-4.4 9.7-9.7zm-19.4 260.5-159.8-130.5 159.8-111.5zm-227.6-441.7 221.2 180.6-169 117.9-46.1-37.6c-3.6-2.9-8.7-2.9-12.2 0l-46.1 37.6-169-117.9zm-227.6 199.8 159.8 111.5-159.8 130.4zm17.5 252.6 210.1-171.5 210.1 171.5z"/></g></g></svg>