<?xml version="1.0" standalone="no"?>
<!DOCTYPE svg PUBLIC "-//W3C//DTD SVG 1.1//EN" "http://www.w3.org/Graphics/SVG/1.1/DTD/svg11.dtd" >
<svg xmlns="http://www.w3.org/2000/svg">
<metadata>Generated by IcoMoon</metadata>
<defs>
<font id="NAiconfont" horiz-adv-x="1024">
<font-face units-per-em="1024" ascent="960" descent="-64" />
<missing-glyph horiz-adv-x="1024" />
<glyph unicode="&#x20;" horiz-adv-x="512" d="" />
<glyph unicode="&#xe900;" glyph-name="up-light" d="M985.088 243.456l-42.592-42.592-430.496 430.432-430.432-430.432-42.592 42.592 473.024 473.024 473.088-473.024z" />
<glyph unicode="&#xe901;" glyph-name="facebook-app-symbol" d="M591.302-64v467.060h156.71l23.511 182.076h-180.221v116.229c0 52.699 14.574 88.612 90.229 88.612l96.335 0.040v162.855c-16.66 2.165-73.847 7.129-140.407 7.129-138.987 0-234.141-84.837-234.141-240.603v-134.261h-157.185v-182.076h157.185v-467.060h187.983z" />
<glyph unicode="&#xe902;" glyph-name="google" d="M0 448c0 282.317 229.683 512 512 512 114.020 0 221.94-36.684 312.096-106.086l-118.979-154.556c-55.745 42.91-122.524 65.595-193.117 65.595-174.768 0-316.952-142.185-316.952-316.952s142.185-316.952 316.952-316.952c140.761 0 260.379 92.223 301.602 219.429h-301.602v195.048h512v-97.524c0-282.317-229.683-512-512-512s-512 229.683-512 512z" />
<glyph unicode="&#xe903;" glyph-name="linkedin-big-logo" d="M136.484 959.28c-75.201 0-136.429-61.216-136.484-136.476 0-75.26 61.228-136.488 136.484-136.488 75.229 0 136.425 61.228 136.425 136.488 0 75.253-61.2 136.476-136.425 136.476zM238.917 631.479h-204.882c-9.746 0-17.651-7.901-17.651-17.655v-659.453c0-9.75 7.905-17.651 17.651-17.651h204.878c9.75 0 17.655 7.905 17.655 17.651v659.453c0.004 9.758-7.901 17.655-17.651 17.655zM762.689 639.242c-74.977 0-140.866-22.831-181.072-60.060v34.641c0 9.754-7.905 17.655-17.655 17.655h-196.532c-9.75 0-17.655-7.901-17.655-17.655v-659.453c0-9.75 7.905-17.651 17.655-17.651h204.685c9.75 0 17.655 7.905 17.655 17.651v326.264c0 93.611 17.218 151.634 103.149 151.634 84.66-0.102 90.996-62.321 90.996-157.227v-320.671c0-9.75 7.905-17.651 17.659-17.651h204.78c9.746 0 17.651 7.905 17.651 17.651v361.739c-0.004 150.446-29.705 323.133-261.315 323.133z" />
<glyph unicode="&#xe904;" glyph-name="arrow-left" horiz-adv-x="1365" d="M563.72 835.138c28.564 28.564 28.564 74.875 0 103.439s-74.876 28.564-103.44 0l-438.857-438.857c-0.536-0.537-1.064-1.081-1.584-1.634-6.006-6.39-10.877-13.86-14.289-22.088-3.576-8.623-5.55-18.080-5.55-27.998 0-1.17 0.028-2.34 0.084-3.509 0.38-7.969 2.057-15.887 5.031-23.412 3.569-9.031 9.005-17.495 16.309-24.799l438.857-438.858c28.564-28.563 74.876-28.563 103.44 0s28.564 74.875 0 103.438l-313.995 313.999h993.705c40.393 0 73.141 32.747 73.141 73.143s-32.748 73.143-73.141 73.143l-993.703-0.001 313.993 313.994z" />
<glyph unicode="&#xe905;" glyph-name="pinterest-circular-logo-symbol" d="M768.995 891.314c-78.439 45.782-164.111 68.668-256.995 68.668-92.897 0-178.565-22.886-257.006-68.668-78.441-45.784-140.553-107.896-186.326-186.326-45.782-78.449-68.668-164.118-68.668-257.006 0-103.555 28.21-197.555 84.663-281.99 56.442-84.459 130.436-146.895 222.001-187.33-1.786 47.555 1.105 86.88 8.667 117.99l65.997 278.667c-11.113 21.773-16.664 48.88-16.664 81.332 0 37.776 9.555 69.34 28.665 94.661 19.099 25.342 42.44 38.014 70 38.014 22.215 0 39.333-7.325 51.335-22.009 12-14.661 18.006-33.111 18.006-55.328 0-13.786-2.566-30.569-7.663-50.338-5.119-19.78-11.784-42.665-19.997-68.668-8.224-25.993-14.11-46.768-17.671-62.33-6.233-27.105-1.114-50.326 15.333-69.664 16.435-19.336 38.22-28.997 65.335-28.997 47.559 0 86.558 26.435 117.007 79.326 30.442 52.891 45.663 117.113 45.663 192.677 0 58.215-18.772 105.558-56.33 142.001-37.558 36.434-89.902 54.667-157 54.667-75.12 0-135.901-24.121-182.333-72.326-46.443-48.229-69.665-105.903-69.665-172.992 0-40.004 11.341-73.569 33.999-100.678 7.553-8.892 9.999-18.438 7.336-28.652-0.898-2.673-2.672-9.337-5.334-19.996s-4.447-17.564-5.334-20.667c-3.561-14.232-12-18.678-25.342-13.333-34.225 14.221-60.229 38.881-77.997 73.996-17.778 35.104-26.663 75.767-26.663 121.993 0 29.779 4.772 59.559 14.327 89.338s24.434 58.551 44.67 86.341c20.213 27.756 44.442 52.329 72.673 73.658 28.221 21.339 62.556 38.435 103.003 51.346 40.439 12.877 84.003 19.325 130.671 19.325 63.109 0 119.779-14.002 169.997-41.994 50.218-28.005 88.558-64.234 115.003-108.674 26.435-44.442 39.669-91.988 39.669-142.673 0-66.667-11.565-126.669-34.667-180.006-23.113-53.337-55.782-95.222-98.007-125.663-42.235-30.438-90.236-45.663-144.004-45.663-27.116 0-52.449 6.33-76.004 19.004-23.569 12.67-39.788 27.667-48.673 45.004-19.997-78.656-31.998-125.568-36.001-140.662-8.452-31.564-25.786-67.996-52.006-109.333 47.557-14.221 96.002-21.327 145.335-21.327 92.886 0 178.557 22.885 256.995 68.656 78.439 45.785 140.551 107.896 186.336 186.347 45.771 78.442 68.67 164.1 68.67 256.999 0 92.897-22.899 178.553-68.67 257.004-45.775 78.388-107.897 140.5-186.336 186.283z" />
<glyph unicode="&#xe906;" glyph-name="arrow-right" horiz-adv-x="1365" d="M752.852 60.86c-28.563-28.563-28.563-74.875 0-103.438s74.875-28.563 103.438 0l438.859 438.858c0.055 0.052 0.102 0.104 0.157 0.156 6.663 6.705 12.035 14.696 15.715 23.566 3.577 8.624 5.55 18.080 5.55 27.998 0 18.719-7.141 37.437-21.422 51.72l-0.027 0.029-438.832 438.828c-28.563 28.564-74.875 28.564-103.438 0s-28.563-74.875 0-103.439l313.993-313.995h-993.701c-40.396 0-73.143-32.748-73.143-73.143s32.747-73.143 73.143-73.143h993.701l-313.993-313.997z" />
<glyph unicode="&#xe907;" glyph-name="call" d="M872.698 808.642c79.98-80.013 132.033-180.557 150.864-291.050 2.753-15.452-7.828-30.269-23.273-32.597-1.695-0.212-3.174-0.423-4.864-0.423-13.756 0-25.816 9.737-28.143 23.707-16.72 98.639-63.272 188.6-134.787 260.145-71.521 71.334-161.451 118.113-260.056 134.835-15.656 2.752-26.024 17.357-23.485 33.021 2.751 15.452 17.351 26.036 32.798 23.284 110.455-18.839 210.961-70.91 290.947-150.922zM800.444 320.051c-20.753 21.515-45.784 33.018-72.317 33.018-26.317 0-51.564-11.292-73.176-32.802l-67.607-67.1c-5.564 2.987-11.127 5.751-16.475 8.522-7.704 3.834-14.979 7.458-21.184 11.292-63.332 40.044-120.887 92.228-176.088 159.752-26.745 33.655-44.718 61.984-57.769 90.74 17.545 15.976 33.805 32.59 49.638 48.565 5.991 5.964 11.981 12.141 17.972 18.105 44.931 44.731 44.931 102.669 0 147.4l-58.411 58.151c-6.633 6.603-13.479 13.42-19.898 20.235-12.838 13.207-26.317 26.839-40.224 39.619-20.754 20.449-45.573 31.312-71.676 31.312s-51.35-10.864-72.746-31.312c-0.214-0.213-0.214-0.213-0.428-0.426l-72.746-73.061c-27.387-27.265-43.006-60.493-46.429-99.048-5.135-62.198 13.265-120.135 27.387-158.050 34.661-93.083 86.439-179.353 163.678-271.797 93.714-111.4 206.47-199.373 335.274-261.353 49.208-23.222 114.897-50.699 188.284-55.381 4.494-0.216 9.199-0.427 13.477-0.427 49.425 0 90.937 17.675 123.455 52.821 0.216 0.427 0.643 0.643 0.859 1.070 11.122 13.42 23.962 25.56 37.439 38.554 9.205 8.732 18.62 17.892 27.819 27.477 21.18 21.936 32.307 47.497 32.307 73.7 0 26.414-11.338 51.758-32.95 73.062l-117.464 117.362zM877.039 95.755c-8.34-8.943-16.902-17.038-26.101-25.981-13.909-13.21-28.029-27.056-41.296-42.604-21.606-23.006-47.070-33.866-80.447-33.866-3.209 0-6.633 0-9.842 0.21-63.545 4.050-122.601 28.757-166.888 49.846-121.101 58.362-227.438 141.221-315.803 246.232-72.96 87.546-121.742 168.488-154.050 255.394-19.899 53.039-27.173 94.362-23.964 133.341 2.14 24.922 11.768 45.583 29.526 63.263l72.96 72.635c10.484 9.798 21.61 15.123 32.522 15.123 13.479 0 24.391-8.094 31.238-14.911l0.642-0.639c13.051-12.141 25.461-24.709 38.513-38.128 6.633-6.816 13.479-13.632 20.326-20.661l58.411-58.151c22.68-22.579 22.68-43.453 0-66.032-6.205-6.177-12.195-12.355-18.4-18.318-17.973-18.319-35.090-35.359-53.704-51.974-0.428-0.426-0.856-0.639-1.070-1.065-18.4-18.319-14.977-36.211-11.126-48.352l0.642-1.917c15.192-36.637 36.587-71.144 69.109-112.254l0.214-0.213c59.052-72.423 121.314-128.868 189.995-172.109 8.772-5.535 17.758-10.012 26.317-14.268 7.703-3.834 14.977-7.458 21.182-11.292 0.856-0.427 1.712-1.064 2.567-1.49 7.277-3.624 14.12-5.325 21.18-5.325 17.761 0 28.888 11.076 32.523 14.694l73.176 72.852c7.27 7.242 18.825 15.974 32.307 15.974 13.266 0 24.178-8.306 30.811-15.548l0.427-0.427 117.891-117.367c22.039-21.726 22.039-44.095 0.21-66.674zM877.039 95.755c-0.102-0.102-0.159-0.102-0.159-0.080 0 0.028 0.057 0.080 0.159 0.080zM571.341 722.262c53.68-9.016 102.446-34.425 141.375-73.358s64.131-87.701 73.353-141.388c2.253-13.524 13.932-22.95 27.25-22.95 1.638 0 3.072 0.205 4.71 0.41 15.161 2.459 25.202 16.803 22.744 31.966-11.065 64.956-41.796 124.175-88.718 171.1s-106.132 77.661-171.088 88.726c-15.159 2.459-29.297-7.582-31.96-22.54s7.171-29.507 22.335-31.966z" />
<glyph unicode="&#xe908;" glyph-name="twitter" d="M1024 765.504c-38.080-16.704-78.656-27.776-120.96-33.152 43.52 25.984 76.736 66.816 92.352 116.032-40.576-24.192-85.376-41.28-133.12-50.816-38.528 41.024-93.44 66.432-153.344 66.432-116.224 0-209.792-94.336-209.792-209.984 0-16.64 1.408-32.64 4.864-47.872-174.528 8.512-328.96 92.16-432.704 219.584-18.112-31.424-28.736-67.392-28.736-106.112 0-72.704 37.44-137.152 93.248-174.464-33.728 0.64-66.816 10.432-94.848 25.856 0-0.64 0-1.472 0-2.304 0-102.016 72.768-186.752 168.192-206.272-17.088-4.672-35.712-6.912-55.040-6.912-13.44 0-27.008 0.768-39.744 3.584 27.2-83.136 104.384-144.256 196.16-146.24-71.424-55.872-162.112-89.536-260.288-89.536-17.216 0-33.728 0.768-50.24 2.88 92.992-59.968 203.2-94.208 322.048-94.208 386.304 0 597.504 320 597.504 597.376 0 9.28-0.32 18.24-0.768 27.136 41.664 29.568 76.672 66.496 105.216 108.992z" />
<glyph unicode="&#xe909;" glyph-name="vimeo" d="M914.189 780.8c-20.884 22.905-51.874 35.032-91.621 35.705-110.484 3.368-189.979-55.242-233.095-175.158-3.368-9.432 0.674-19.537 10.105-22.905 3.368-0.674 7.411-2.021 10.779-0.674 12.126 3.368 24.253 5.389 37.053 5.389 16.842 0 37.726-2.695 49.179-17.516 8.084-10.779 9.432-27.621 3.368-49.179-5.389-18.189-31.663-66.695-63.326-117.221-39.747-61.979-60.632-89.6-67.368-89.6-21.558 0.674-95.663 334.147-97.684 341.558-20.884 75.453-31.663 114.526-102.4 114.526-54.568 0-174.484-97.011-272.168-182.568l-14.821-12.8c-9.432-8.084-10.779-22.232-3.368-31.663l18.189-22.905c7.411-10.105 22.232-12.126 32.337-4.716l0.674 0.674c31.663 23.579 61.979 44.463 84.211 44.463 24.926 0.674 45.811-37.053 70.737-128 49.179-177.853 121.937-389.389 197.389-389.389 79.495 0 172.463 66.695 294.4 225.011 109.811 142.821 169.095 256.674 172.463 339.537 3.368 61.979-8.084 109.137-35.032 137.432z" />
<glyph unicode="&#xe90a;" glyph-name="youtube-logo" d="M618.861 862.278v-225.128c0-19.443 1.519-33.721 4.567-42.858 4.949-14.109 16.192-21.143 33.71-21.143 19.038 0 38.661 11.781 58.848 35.421v-31.426h52.007v285.134h-51.996v-217.702c-11.432-16.405-22.278-24.574-32.573-24.574-6.854 0-10.858 4.175-11.995 12.568-0.382 0.754-0.574 7.437-0.574 19.994v209.713h-51.994zM500.006 573.149c26.284 0 46.471 9.711 60.569 29.132 10.667 14.089 16.001 36.58 16.001 67.432v99.996c0 30.47-5.334 52.748-16.001 66.848-14.098 19.443-34.283 29.154-60.569 29.154-25.53 0-45.526-9.711-60.006-29.154-10.667-14.111-16.001-36.388-16.001-66.848v-99.996c0-30.492 5.334-52.974 16.001-67.432 14.469-19.421 34.475-29.132 60.006-29.132zM475.43 780.003c0 26.275 8.193 39.415 24.574 39.415 16.372 0 24.574-13.142 24.574-39.415v-120.002c0-26.679-8.202-40.001-24.574-40.001-16.383 0-24.574 13.322-24.574 40.001v120.002zM354.294 577.144v154.849l69.142 228.007h-58.285l-38.852-150.292-40.586 150.292h-60.569c10.667-32.013 23.044-67.636 37.142-106.849 17.902-52.592 29.514-92.962 34.859-121.16v-154.838l57.147-0.009zM887.711 487.432c-16.957 15.223-36.479 24.169-58.565 26.857-70.098 7.606-175.811 11.432-317.134 11.432-141.334 0-246.856-3.815-316.571-11.432-22.482-2.679-42.093-11.634-58.859-26.857-16.766-15.269-27.813-34.105-33.147-56.585-9.913-44.197-14.854-110.842-14.854-200.002 0-90.666 4.951-157.322 14.854-200.002 4.949-22.458 15.898-41.316 32.855-56.563 16.946-15.247 36.467-24 58.565-26.297 70.089-7.988 175.8-11.984 317.147-11.984 141.334 0 247.047 3.995 317.134 11.984 22.088 2.296 41.52 11.050 58.284 26.297 16.755 15.247 27.804 34.105 33.149 56.563 9.902 44.199 14.852 110.866 14.852 200.002 0 90.668-4.949 157.324-14.852 200.002-4.962 22.48-15.911 41.316-32.857 56.585zM330.292 373.147h-61.143v-325.146h-57.138v325.146h-59.993v53.706h178.287v-53.706h-0.013zM484.568 48h-50.86v30.876c-20.57-23.235-39.999-34.87-58.285-34.87-17.531 0-28.569 7.054-33.147 21.141-3.050 9.149-4.569 23.031-4.569 41.722v223.429h50.86v-208.015c0-12.186 0.191-18.858 0.574-19.994 1.147-7.988 5.142-11.984 12.006-11.984 10.285 0 21.143 7.988 32.575 24v215.992h50.858v-282.299h-0.011zM678.854 132.57c0-27.813-1.712-46.852-5.142-57.136-6.481-20.941-19.996-31.426-40.575-31.426-18.282 0-35.995 10.485-53.141 31.426v-27.433h-50.86v378.852h50.86v-123.995c16.37 20.559 34.092 30.853 53.141 30.853 20.57 0 34.094-10.667 40.575-31.989 3.431-9.913 5.142-28.77 5.142-56.585v-112.567zM871.993 179.425h-102.28v-49.712c0-26.295 8.753-39.415 26.284-39.415 12.568 0 20.185 6.852 22.853 20.557 0.754 3.815 1.147 15.427 1.147 34.87h51.996v-7.437c0-18.678-0.382-29.705-1.149-33.147-1.147-10.298-5.142-20.559-11.993-30.853-13.716-20.176-34.283-30.292-61.716-30.292-26.284 0-46.864 9.711-61.716 29.154-11.050 14.087-16.574 36.164-16.574 66.274v98.86c0 30.086 5.334 52.185 16.001 66.296 14.852 19.421 35.228 29.132 61.143 29.132 25.519 0 45.715-9.709 60.567-29.132 10.285-14.111 15.427-36.208 15.427-66.296v-58.859h0.011zM795.423 287.441c-17.146 0-25.708-12.964-25.708-38.865v-26.297h51.431v26.297c-0.013 25.892-8.575 38.865-25.723 38.865zM605.717 287.441c-8.766 0-17.339-4.197-25.71-12.592v-171.985c8.373-8.393 16.946-12.568 25.71-12.568 14.852 0 22.29 12.748 22.29 38.278v120.562c-0.013 25.534-7.439 38.304-22.29 38.304z" />
<glyph unicode="&#xe90b;" glyph-name="line2" d="M75.852 523.852h455.111c41.892 0 75.852-33.96 75.852-75.852s-33.96-75.852-75.852-75.852v0h-455.111c-41.892 0-75.852 33.96-75.852 75.852s33.96 75.852 75.852 75.852v0zM872.296 523.852h75.852c41.892 0 75.852-33.96 75.852-75.852s-33.96-75.852-75.852-75.852v0h-75.852c-41.892 0-75.852 33.96-75.852 75.852s33.96 75.852 75.852 75.852v0z" />
<glyph unicode="&#xe90c;" glyph-name="line3" d="M22.261 470.261h623.304c12.294 0 22.261-9.967 22.261-22.261s-9.967-22.261-22.261-22.261v0h-623.304c-12.294 0-22.261 9.967-22.261 22.261s9.967 22.261 22.261 22.261v0zM745.739 470.261h133.565c12.294 0 22.261-9.967 22.261-22.261s-9.967-22.261-22.261-22.261v0h-133.565c-12.294 0-22.261 9.967-22.261 22.261s9.967 22.261 22.261 22.261v0zM979.478 470.261h22.261c12.294 0 22.261-9.967 22.261-22.261s-9.967-22.261-22.261-22.261v0h-22.261c-12.294 0-22.261 9.967-22.261 22.261s9.967 22.261 22.261 22.261v0z" />
<glyph unicode="&#xe90d;" glyph-name="completed" d="M67.014 412.616c0-11.046 8.954-20 20-20s20 8.954 20 20v262.824h662.020v-404.67c-37.298-4.398-71.818-21.066-98.782-48.028-31.726-31.726-49.198-73.91-49.198-118.784 0-37.98 13.164-75.296 36.914-104.922 6.702-8.36 14.208-16.094 22.37-23.038h-549.444c-13.166 0-23.88 10.722-23.88 23.9v236.8c0 11.046-8.954 20-20 20s-20-8.954-20-20v-236.798c0-35.234 28.656-63.9 63.88-63.9h658.142c92.616 0.004 167.962 75.352 167.962 167.968 0 85.846-64.748 156.81-147.966 166.736l0.008 546.556c0 35.224-28.666 63.88-63.9 63.88h-40.784v20.092c0.002 32.404-26.362 58.768-58.768 58.768s-58.768-26.364-58.768-58.768v-20.092h-90.032v20.092c0.002 32.404-26.362 58.768-58.768 58.768s-58.768-26.364-58.768-58.768v-20.092h-90.032v20.092c0 32.404-26.364 58.768-58.768 58.768s-58.77-26.364-58.77-58.768v-20.092h-40.782c-35.234 0-63.9-28.658-63.9-63.88zM917 103.968c0-70.562-57.406-127.968-127.968-127.968-9.266 0-18.294 1.014-27.006 2.894-57.634 12.432-100.964 63.778-100.964 125.076 0 70.562 57.406 127.968 127.968 127.968s127.97-57.406 127.97-127.97zM626.82 901.232c0 10.348 8.42 18.768 18.768 18.768s18.768-8.42 18.768-18.768v-80.216c0-10.348-8.42-18.768-18.768-18.768-10.194 0-18.768 8.562-18.768 18.774zM438.020 920c10.348 0 18.768-8.42 18.768-18.768l-0.008-80.212c0-10.192-8.552-18.774-18.76-18.774-10.206 0-18.76 8.582-18.76 18.774l-0.008 80.21c0 10.35 8.42 18.77 18.768 18.77zM211.682 901.232c0 10.348 8.42 18.768 18.768 18.768s18.768-8.42 18.768-18.768v-80.216c0-10.348-8.42-18.768-18.768-18.768s-18.768 8.42-18.768 18.768zM107 817.26c0 13.168 10.722 23.88 23.9 23.88h40.78v-20.12c0-32.412 26.368-58.78 58.78-58.78 32.4 0 58.76 26.37 58.76 58.78v20.12h90.032v-20.126c0-31.956 26.78-58.774 58.768-58.774s58.768 26.82 58.768 58.774v20.126h90.032v-20.12c-0.004-32.006 26.796-58.78 58.76-58.78 32.412 0 58.78 26.37 58.78 58.78v20.12h40.78c13.178 0 23.9-10.712 23.9-23.88v-101.82h-662.040zM739.122 109.148c-7.81 7.81-20.474 7.81-28.284 0s-7.812-20.474 0-28.284l37.778-37.778c7.7-7.7 20.584-7.7 28.286 0l86.18 86.18c7.81 7.81 7.81 20.474 0 28.286-7.81 7.81-20.474 7.81-28.286 0l-72.038-72.038zM230.75 474.102c5.118 0 10.238 1.952 14.142 5.858l86.18 86.18c7.81 7.81 7.81 20.474 0 28.286-7.81 7.81-20.474 7.81-28.286 0l-72.038-72.038-23.634 23.636c-7.81 7.81-20.474 7.81-28.286 0-7.81-7.81-7.81-20.474 0-28.286l37.778-37.778c3.906-3.906 9.024-5.858 14.144-5.858zM178.83 306.266l37.778-37.778c7.7-7.7 20.584-7.7 28.286 0l86.18 86.18c7.81 7.81 7.81 20.474 0 28.286-7.81 7.81-20.474 7.81-28.286 0l-72.038-72.038-23.634 23.636c-7.81 7.81-20.474 7.81-28.284 0-7.812-7.812-7.814-20.474-0.002-28.286zM302.786 171.482l-72.038-72.038-23.634 23.636c-7.81 7.81-20.474 7.81-28.286 0-7.81-7.81-7.81-20.474 0-28.286l37.778-37.778c7.704-7.704 20.58-7.704 28.286 0l86.18 86.18c7.81 7.81 7.81 20.474 0 28.286-7.812 7.81-20.476 7.81-28.286 0zM409.252 559.696h258.364c11.046 0 20 8.954 20 20s-8.954 20-20 20h-258.364c-11.046 0-20-8.954-20-20s8.954-20 20-20zM409.252 474.688h258.364c11.046 0 20 8.954 20 20s-8.954 20-20 20h-258.364c-11.046 0-20-8.954-20-20s8.954-20 20-20zM409.252 349.314h258.364c11.046 0 20 8.954 20 20s-8.954 20-20 20h-258.364c-11.046 0-20-8.954-20-20s8.954-20 20-20zM409.252 264.306h223.802c11.046 0 20 8.954 20 20s-8.954 20-20 20h-223.802c-11.046 0-20-8.954-20-20s8.954-20 20-20zM409.252 138.934h146.96c11.046 0 20 8.954 20 20s-8.954 20-20 20h-146.96c-11.046 0-20-8.954-20-20s8.954-20 20-20zM409.252 53.926h146.96c11.046 0 20 8.954 20 20s-8.954 20-20 20h-146.96c-11.046 0-20-8.954-20-20s8.954-20 20-20zM68.54 318.080c7.020-17.128 32.176-15.588 37.59 1.84 5.27 16.964-13.71 31.808-28.98 23.182-8.664-4.894-12.44-15.828-8.61-25.022z" />
<glyph unicode="&#xe90e;" glyph-name="date" d="M20 27.148h559.25c47.024-49.354 113.356-80.156 186.746-80.156 142.264 0 258.004 115.74 258.004 258.004s-115.74 258.004-258.004 258.004c-22.874 0-45.058-3.008-66.19-8.622v474.63c0 11.046-8.956 20-20 20h-249.78c-11.044 0-20-8.954-20-20s8.956-20 20-20h229.78v-468.814c-28.394-12.798-53.99-30.502-76.24-52.752-48.736-48.736-75.576-113.526-75.576-182.438 0-48.556 13.928-96.814 39.898-137.856h-507.888v841.86h214.114c11.044 0 20 8.954 20 20s-8.956 20-20 20h-234.114c-11.044 0-20-8.954-20-20v-881.862c0-11.044 8.956-19.998 20-19.998zM984 204.996c0-120.208-97.796-218.004-218.004-218.004-118.67 0-218.004 99.436-218.004 218.004 0 120.208 97.796 218.004 218.004 218.004s218.004-97.796 218.004-218.004zM765.996 31.784c95.51 0 173.212 77.702 173.212 173.212s-77.704 173.212-173.212 173.212-173.212-77.702-173.212-173.212 77.702-173.212 173.212-173.212zM765.996 338.208c73.454 0 133.212-59.758 133.212-133.212s-59.76-133.212-133.212-133.212-133.212 59.758-133.212 133.212 59.758 133.212 133.212 133.212zM728.382 147.382c5.118 0 10.236 1.954 14.142 5.858l37.614 37.612c3.75 3.75 5.858 8.838 5.858 14.142v77.348c0 11.046-8.956 20-20 20s-20-8.954-20-20v-69.064l-31.756-31.754c-7.81-7.81-7.81-20.474 0-28.284 3.906-3.906 9.024-5.858 14.142-5.858zM155.664 782.522c-11.044 0-20-8.954-20-20v-110.796c0-11.046 8.956-20 20-20h110.794c11.044 0 20 8.954 20 20v110.796c0 11.046-8.956 20-20 20zM246.458 671.726h-70.794v70.796h70.794zM286.458 540.812c0 11.046-8.956 20-20 20h-110.794c-11.044 0-20-8.954-20-20v-110.796c0-11.046 8.956-20 20-20h110.794c11.044 0 20 8.954 20 20zM246.458 450.016h-70.794v70.796h70.794zM266.458 339.102h-110.794c-11.044 0-20-8.954-20-20v-110.796c0-11.046 8.956-20 20-20h110.794c11.044 0 20 8.954 20 20v110.796c0 11.046-8.954 20-20 20zM246.458 228.306h-70.794v70.796h70.794zM382.744 727.614h161.394c11.044 0 20 8.954 20 20s-8.956 20-20 20h-161.394c-11.044 0-20-8.954-20-20s8.956-20 20-20zM382.744 642.42h80.698c11.044 0 20 8.954 20 20s-8.956 20-20 20h-80.698c-11.044 0-20-8.954-20-20s8.956-20 20-20zM382.744 508.010h161.394c11.044 0 20 8.954 20 20s-8.956 20-20 20h-161.394c-11.044 0-20-8.954-20-20s8.956-20 20-20zM382.744 422.818h74.698c11.044 0 20 8.954 20 20s-8.956 20-20 20h-74.698c-11.044 0-20-8.954-20-20s8.956-20 20-20zM382.744 288.408h74.698c11.044 0 20 8.954 20 20s-8.956 20-20 20h-74.698c-11.044 0-20-8.954-20-20s8.956-20 20-20zM382.744 203.214h54.156c11.044 0 20 8.954 20 20s-8.956 20-20 20h-54.156c-11.044 0-20-8.954-20-20s8.956-20 20-20zM323.66 921.36c4.192-10.064 16.028-15 26.12-10.82 10.058 4.166 14.996 16.060 10.82 26.12-4.18 10.068-16.048 14.98-26.12 10.82-10.060-4.154-15.010-16.062-10.82-26.12z" />
<glyph unicode="&#xe90f;" glyph-name="open-mail" d="M1006 535.2c0 5.8-2.8 11.4-7.2 15l-474.6 387.4c-7.2 5.8-17.4 5.8-24.4 0l-474.6-387.4c-4.4-3.4-7.2-9.2-7.2-15v-562c0.2-10.6 9-19.2 19.4-19.2h949.2c10.6 0 19.4 8.8 19.4 19.4zM967.2 14.2l-319.6 261 319.6 223zM512 897.6l442.4-361.2-338-235.8-92.2 75.2c-7.2 5.8-17.4 5.8-24.4 0l-92.2-75.2-338 235.8zM56.8 498l319.6-223-319.6-260.8zM91.8-7.2l420.2 343 420.2-343z" />
<glyph unicode="&#xe910;" glyph-name="search" d="M528.608 763.264c8.331-8.331 8.331-21.835 0-30.165-4.171-4.171-9.621-6.251-15.083-6.251s-10.912 2.080-15.083 6.251c-74.88 74.869-196.672 74.869-271.541 0-8.331-8.331-21.835-8.331-30.165 0s-8.331 21.835 0 30.165c91.488 91.499 240.373 91.499 331.872 0zM960 85.333c0-22.795-8.875-44.224-25.003-60.331-16.107-16.128-37.536-25.003-60.331-25.003s-44.224 8.875-60.331 25.003l-224 224c-8.331 8.331-8.331 21.835 0 30.165l30.165 30.165-47.307 47.307c-56.32-49.312-129.963-79.307-210.528-79.307-176.448 0-320 143.552-320 320s143.552 320 320 320 320-143.552 320-320c0-80.565-29.995-154.208-79.307-210.528l47.307-47.307 30.165 30.165c8.331 8.331 21.835 8.331 30.165 0l224-224c16.128-16.107 25.003-37.536 25.003-60.331zM640 597.333c0 152.917-124.405 277.333-277.333 277.333s-277.333-124.416-277.333-277.333 124.405-277.333 277.333-277.333 277.333 124.416 277.333 277.333zM917.333 85.333c0 11.392-4.437 22.101-12.501 30.165l-208.917 208.917-60.331-60.331 208.917-208.917c16.128-16.128 44.213-16.128 60.331 0 8.064 8.064 12.501 18.773 12.501 30.165z" />
<glyph unicode="&#xe911;" glyph-name="timeline" d="M1004 617.449c11.044 0 20 8.954 20 20v91.749c0 11.046-8.956 20-20 20h-29.638c-11.044 0-20-8.954-20-20s8.956-20 20-20h9.638v-51.748h-206v51.748h20.394c11.044 0 20 8.954 20 20s-8.956 20-20 20h-778.394c-11.044 0-20-8.954-20-20v-91.749c0-11.046 8.956-20 20-20h102.999v-405.217h-81.773c-11.044 0-20-8.954-20-20v-200.086c0-11.046 8.956-20 20-20h203.546c11.044 0 20 8.954 20 20v200.084c0 11.046-8.956 20-20 20h-81.773v405.217h206v-131.155h-78.345c-11.044 0-20-8.954-20-20v-200.084c0-11.046 8.956-20 20-20h203.546c11.044 0 20 8.954 20 20v200.084c0 11.046-8.956 20-20 20h-85.203v131.155h212.43v-405.217h-82.203c-11.044 0-20-8.954-20-20v-200.086c0-11.046 8.956-20 20-20h203.546c11.044 0 20 8.954 20 20v200.086c0 11.046-8.956 20-20 20h-81.345v405.217h203.684v-131.157h-78.343c-11.044 0-20-8.954-20-20v-200.084c0-11.046 8.956-20 20-20h203.546c11.044 0 20 8.954 20 20v200.086c0 11.046-8.956 20-20 20h-85.201v131.157zM224.774 12.147h-163.547v160.085h163.545v-160.085zM474.202 286.209h-163.545v160.083h163.545zM722.774 12.147h-163.545v160.085h163.545zM40 709.196h206v-51.748h-206zM286 709.196h206v-51.748h-206zM532 709.196h206v-51.748h-206zM970.312 286.209h-163.545v160.083h163.545zM95.303 92.187c0-11.046 8.956-20 20-20h53.224c11.044 0 20 8.954 20 20s-8.956 20-20 20h-53.224c-11.044 0-20-8.954-20-20zM345.815 366.249c0-11.046 8.956-20 20-20h53.224c11.044 0 20 8.954 20 20s-8.956 20-20 20h-53.224c-11.044 0-20-8.954-20-20zM594.387 92.187c0-11.046 8.956-20 20-20h53.224c11.044 0 20 8.954 20 20s-8.956 20-20 20h-53.224c-11.044 0-20-8.954-20-20zM841.927 366.249c0-11.046 8.956-20 20-20h53.224c11.044 0 20 8.954 20 20s-8.956 20-20 20h-53.224c-11.044 0-20-8.954-20-20zM806.942 795.911c7.708-7.704 20.578-7.704 28.286 0l46.9 46.9c7.686 7.678 7.686 20.608 0 28.286l-46.9 46.9c-7.812 7.81-20.472 7.81-28.286 0-7.81-7.81-7.81-20.474 0-28.284l12.758-12.756h-663.677c-11.044 0-20-8.954-20-20s8.956-20 20-20h663.677l-12.758-12.758c-7.812-7.814-7.812-20.478 0-28.288zM866.641 721.542c4.19-10.050 16.040-15.006 26.122-10.82 10.064 4.178 14.99 16.048 10.82 26.12-4.166 10.062-16.058 14.998-26.122 10.82-10.096-4.192-14.954-16.024-10.82-26.12z" />
<glyph unicode="&#xe912;" glyph-name="book" d="M136.533 4.267c0-37.703 30.564-68.267 68.267-68.267h631.467c28.277 0 51.2 22.923 51.2 51.2v921.6c0 28.277-22.923 51.2-51.2 51.2h-631.467c-37.703 0-68.267-30.564-68.267-68.267zM836.267-29.867h-597.333v682.667c0 9.426-7.641 17.067-17.067 17.067s-17.067-7.641-17.067-17.067v-682.667c-18.851 0-34.133 15.282-34.133 34.133v828.689c10.331-6.143 22.114-9.418 34.133-9.489v-85.333c0-9.426 7.641-17.067 17.067-17.067s17.067 7.641 17.067 17.067v85.333h614.4v-836.267c0-9.426-7.641-17.067-17.067-17.067zM204.8 925.867h631.467c9.426 0 17.067-7.641 17.067-17.067v-51.2h-648.533c-18.851 0-34.133 15.282-34.133 34.133s15.282 34.133 34.133 34.133zM733.867 277.333h-375.467c-18.851 0-34.133-15.282-34.133-34.133v-51.2c0-18.851 15.282-34.133 34.133-34.133h375.467c18.851 0 34.133 15.282 34.133 34.133v51.2c0 18.851-15.282 34.133-34.133 34.133zM358.4 192v51.2h375.467v-51.2zM631.467 106.667h-170.667c-9.426 0-17.067-7.641-17.067-17.067s7.641-17.067 17.067-17.067h170.667c9.426 0 17.067 7.641 17.067 17.067s-7.641 17.067-17.067 17.067zM589.875 716.169c-9.291 15.262-25.866 24.576-43.733 24.576s-34.442-9.314-43.733-24.576l-178.142-292.745c-9.617-15.797-9.967-35.553-0.916-51.681s26.096-26.122 44.59-26.143h356.386c18.494 0.022 35.539 10.015 44.59 26.143s8.701 35.884-0.916 51.681zM739.209 388.489c-2.968-5.432-8.693-8.78-14.882-8.704h-356.386c-6.168 0.001-11.855 3.33-14.876 8.707s-2.906 11.966 0.301 17.234l178.193 292.693c3.098 5.085 8.621 8.187 14.575 8.187s11.477-3.103 14.575-8.187l178.278-292.745c3.254-5.263 3.339-11.892 0.222-17.237zM546.133 635.733c-9.426 0-17.067-7.641-17.067-17.067v-102.4c0-9.426 7.641-17.067 17.067-17.067s17.067 7.641 17.067 17.067v102.4c0 9.426-7.641 17.067-17.067 17.067zM546.133 465.067c-9.426 0-17.067-7.641-17.067-17.067v-17.067c0-9.426 7.641-17.067 17.067-17.067s17.067 7.641 17.067 17.067v17.067c0 9.426-7.641 17.067-17.067 17.067z" />
<glyph unicode="&#xe913;" glyph-name="down-light" d="M985.088 654.304l-473.152-473.088-473.024 473.088 42.592 42.592 430.368-430.432 430.56 430.496 42.656-42.656z" />
<glyph unicode="&#xe914;" glyph-name="data-flow" d="M144 592h736c17.666 0.018 31.982 14.334 32 31.998v224.002c-0.018 17.666-14.334 31.982-31.998 32h-736.002c-17.666-0.018-31.982-14.334-32-31.998v-224.002c0.018-17.666 14.334-31.982 31.998-32h0.002zM144 624v96h736.014l0.010-96zM880 848l0.010-96h-736.010v96zM816 800c0 8.837 7.163 16 16 16s16-7.163 16-16c0-8.837-7.163-16-16-16v0c-8.837 0-16 7.163-16 16v0zM176 800c0 8.837 7.163 16 16 16v0h224c8.837 0 16-7.163 16-16s-7.163-16-16-16v0h-224c-8.837 0-16 7.163-16 16v0zM287.962 314.914c-2.927 3.133-7.083 5.086-11.696 5.086 0 0 0 0 0 0h-164.266c-8.837 0-16-7.163-16-16v0-256c0-8.837 7.163-16 16-16v0h224c8.837 0 16 7.163 16 16v0 192c0 0 0 0.001 0 0.001 0 4.223-1.638 8.064-4.312 10.921l0.008-0.009zM320 64h-192v224h141.312l50.688-54.304zM784 384v64h-256v-64c0-8.837-7.163-16-16-16s-16 7.163-16 16v0 64h-256v-64c0-8.837-7.163-16-16-16s-16 7.163-16 16v0 80c0 8.837 7.163 16 16 16v0h272v48c0 8.837 7.163 16 16 16s16-7.163 16-16v0-48h272c8.837 0 16-7.163 16-16v0-80c0-8.837-7.163-16-16-16s-16 7.163-16 16v0zM160 240c0 8.837 7.163 16 16 16v0h32c8.837 0 16-7.163 16-16s-7.163-16-16-16v0h-32c-8.837 0-16 7.163-16 16v0zM176 192h96c8.837 0 16-7.163 16-16s-7.163-16-16-16v0h-96c-8.837 0-16 7.163-16 16s7.163 16 16 16v0zM288 112c0-8.837-7.163-16-16-16v0h-96c-8.837 0-16 7.163-16 16s7.163 16 16 16v0h96c8.837 0 16-7.163 16-16v0zM575.962 314.914c-2.927 3.133-7.083 5.086-11.696 5.086 0 0 0 0 0 0h-164.266c-8.837 0-16-7.163-16-16v0-256c0-8.837 7.163-16 16-16v0h224c8.837 0 16 7.163 16 16v0 192c0 0 0 0.001 0 0.001 0 4.223-1.638 8.064-4.312 10.921l0.008-0.009zM608 64h-192v224h141.312l50.688-54.304zM448 240c0 8.837 7.163 16 16 16v0h32c8.837 0 16-7.163 16-16s-7.163-16-16-16v0h-32c-8.837 0-16 7.163-16 16v0zM464 192h96c8.837 0 16-7.163 16-16s-7.163-16-16-16v0h-96c-8.837 0-16 7.163-16 16s7.163 16 16 16v0zM576 112c0-8.837-7.163-16-16-16v0h-96c-8.837 0-16 7.163-16 16s7.163 16 16 16v0h96c8.837 0 16-7.163 16-16v0zM923.696 250.914l-59.734 64c-2.927 3.133-7.083 5.086-11.696 5.086 0 0 0 0 0 0h-164.266c-8.837 0-16-7.163-16-16v0-256c0-8.837 7.163-16 16-16v0h224c8.837 0 16 7.163 16 16v0 192c0 0 0 0.001 0 0.001 0 4.223-1.638 8.064-4.312 10.921l0.008-0.009zM896 64h-192v224h141.312l50.688-54.304zM736 240c0 8.837 7.163 16 16 16v0h32c8.837 0 16-7.163 16-16s-7.163-16-16-16v0h-32c-8.837 0-16 7.163-16 16v0zM752 192h96c8.837 0 16-7.163 16-16s-7.163-16-16-16v0h-96c-8.837 0-16 7.163-16 16s7.163 16 16 16v0zM864 112c0-8.837-7.163-16-16-16v0h-96c-8.837 0-16 7.163-16 16s7.163 16 16 16v0h96c8.837 0 16-7.163 16-16v0z" />
<glyph unicode="&#xe915;" glyph-name="eye" d="M512 806.4c-130.236 0-259.823-60.757-374.733-175.667-51.143-50.92-95.889-108.198-132.971-170.565l-2.18-3.959c-1.324-2.369-2.104-5.198-2.104-8.209s0.78-5.84 2.148-8.296l-0.044 0.087c39.263-66.327 84.009-123.604 135.121-174.494l0.030-0.030c114.91-114.91 244.497-175.667 374.733-175.667 330.991 0 508.45 347.273 510.293 350.771 1.135 2.223 1.8 4.848 1.8 7.629s-0.665 5.406-1.845 7.726l0.045-0.097c-1.843 3.499-179.302 350.771-510.293 350.771zM512 772.267c191.369 0 328.653-125.423 406.187-222.089-111.881 84.375-252.942 135.557-405.907 136.753l-0.28 0.002c-148.174-1.053-284.942-49.015-396.422-129.751l1.994 1.375c81.801 95.471 218.641 213.709 394.428 213.709zM750.933 448c0-0.104 0-0.227 0-0.35 0-131.959-106.974-238.933-238.933-238.933s-238.933 106.974-238.933 238.933c0 75.25 34.787 142.376 89.157 186.172l0.46 0.358c44.825 11.83 96.286 18.624 149.333 18.624s104.508-6.793 153.56-19.558l-4.227 0.934c54.79-43.798 89.584-110.628 89.584-185.584 0-0.21 0-0.419-0.001-0.629v0.033zM512 123.733c-263.714 0-439.62 265.916-473.805 322.048 70.618 71.823 156.195 128.696 251.708 165.598l4.872 1.655c-34.846-45.373-55.842-102.967-55.842-165.466 0-150.811 122.256-273.067 273.067-273.067s273.067 122.256 273.067 273.067c0 62.498-20.996 120.093-56.32 166.114l0.478-0.649c100.53-38.613 186.221-95.605 256.799-167.487l0.105-0.108c-31.164-55.467-195.311-321.707-474.129-321.707zM392.533 448c0-65.98 53.487-119.467 119.467-119.467s119.467 53.487 119.467 119.467c0 65.98-53.487 119.467-119.467 119.467v0c-65.944-0.087-119.379-53.522-119.467-119.458v-0.008zM597.333 448c0-47.128-38.205-85.333-85.333-85.333s-85.333 38.205-85.333 85.333c0 47.128 38.205 85.333 85.333 85.333v0c47.105-0.058 85.275-38.228 85.333-85.328v-0.006zM529.067 857.6v85.333c0 9.426-7.641 17.067-17.067 17.067s-17.067-7.641-17.067-17.067v0-85.333c0-9.426 7.641-17.067 17.067-17.067s17.067 7.641 17.067 17.067v0zM307.2 785.647c9.418 0.010 17.049 7.647 17.049 17.067 0 3.142-0.849 6.085-2.33 8.614l0.044-0.081-42.667 73.899c-2.993 5.192-8.513 8.631-14.836 8.631-9.426 0-17.067-7.641-17.067-17.067 0-3.182 0.871-6.16 2.387-8.71l-0.043 0.079 42.667-73.899c3.006-5.137 8.496-8.533 14.78-8.533 0.006 0 0.012 0 0.018 0h-0.001zM264.533 2.321c0.005 0 0.011 0 0.017 0 6.284 0 11.774 3.396 14.737 8.453l0.044 0.081 42.667 73.899c1.403 2.424 2.23 5.333 2.23 8.435 0 9.426-7.641 17.067-17.067 17.067-6.244 0-11.705-3.353-14.68-8.357l-0.043-0.079-42.667-73.899c-1.438-2.448-2.287-5.391-2.287-8.533 0-9.42 7.631-17.057 17.048-17.067h0.001zM529.067-46.933v85.333c0 9.426-7.641 17.067-17.067 17.067s-17.067-7.641-17.067-17.067v0-85.333c0-9.426 7.641-17.067 17.067-17.067s17.067 7.641 17.067 17.067v0zM759.467 2.321c9.418 0.010 17.049 7.647 17.049 17.067 0 3.142-0.849 6.085-2.33 8.614l0.044-0.081-42.667 73.899c-2.993 5.192-8.513 8.631-14.836 8.631-9.426 0-17.067-7.641-17.067-17.067 0-3.182 0.871-6.16 2.387-8.71l-0.043 0.079 42.667-73.899c3.006-5.137 8.496-8.533 14.78-8.533 0.006 0 0.012 0 0.018 0h-0.001zM716.8 785.647c0.005 0 0.011 0 0.017 0 6.284 0 11.774 3.396 14.737 8.453l0.044 0.081 42.667 73.899c1.473 2.471 2.344 5.45 2.344 8.631 0 9.426-7.641 17.067-17.067 17.067-6.323 0-11.844-3.439-14.792-8.549l-0.044-0.082-42.667-73.899c-1.438-2.448-2.287-5.391-2.287-8.533 0-9.42 7.631-17.057 17.048-17.067h0.001z" />
<glyph unicode="&#xe916;" glyph-name="hospital" d="M238.933 533.333c0-18.851 15.282-34.133 34.133-34.133v0h17.067v-17.067c0-18.851 15.282-34.133 34.133-34.133v0h34.133c18.851 0 34.133 15.282 34.133 34.133v0 17.067h17.067c18.851 0 34.133 15.282 34.133 34.133v0 34.133c0 18.851-15.282 34.133-34.133 34.133v0h-17.067v17.067c0 18.851-15.282 34.133-34.133 34.133v0h-34.133c-18.851 0-34.133-15.282-34.133-34.133v0-17.067h-17.067c-18.851 0-34.133-15.282-34.133-34.133v0zM273.067 567.467h34.133c9.426 0 17.067 7.641 17.067 17.067v0 34.133h34.133v-34.133c0-9.426 7.641-17.067 17.067-17.067v0h34.133v-34.133h-34.133c-9.426 0-17.067-7.641-17.067-17.067v0-34.133h-34.133v34.133c0 9.426-7.641 17.067-17.067 17.067v0h-34.133zM204.8 686.933c18.851 0 34.133 15.282 34.133 34.133v0 51.2c0 18.851-15.282 34.133-34.133 34.133v0h-68.267c-18.851 0-34.133-15.282-34.133-34.133v0-51.2c0-18.851 15.282-34.133 34.133-34.133v0zM136.533 772.267h68.267v-51.2h-68.267zM307.2 686.933h68.267c18.851 0 34.133 15.282 34.133 34.133v0 51.2c0 18.851-15.282 34.133-34.133 34.133v0h-68.267c-18.851 0-34.133-15.282-34.133-34.133v0-51.2c0-18.851 15.282-34.133 34.133-34.133v0zM307.2 772.267h68.267v-51.2h-68.267zM477.867 686.933h68.267c18.851 0 34.133 15.282 34.133 34.133v0 51.2c0 18.851-15.282 34.133-34.133 34.133v0h-68.267c-18.851 0-34.133-15.282-34.133-34.133v0-51.2c0-18.851 15.282-34.133 34.133-34.133v0zM477.867 772.267h68.267v-51.2h-68.267zM733.867 396.8c-94.257 0-170.667-76.41-170.667-170.667s76.41-170.667 170.667-170.667c94.257 0 170.667 76.41 170.667 170.667v0c-0.107 94.214-76.453 170.56-170.656 170.667h-0.010zM733.867 89.6c-75.405 0-136.533 61.128-136.533 136.533s61.128 136.533 136.533 136.533c75.405 0 136.533-61.128 136.533-136.533v0c-0.087-75.37-61.163-136.446-136.525-136.533h-0.009zM733.867 328.533c-56.554 0-102.4-45.846-102.4-102.4s45.846-102.4 102.4-102.4c56.554 0 102.4 45.846 102.4 102.4v0c-0.058 56.531-45.869 102.342-102.394 102.4h-0.006zM733.867 157.867c-37.703 0-68.267 30.564-68.267 68.267s30.564 68.267 68.267 68.267c37.703 0 68.267-30.564 68.267-68.267v0c0-37.703-30.564-68.267-68.267-68.267v0zM1022.532 253.645c-1.893 15.076-13.435 26.977-28.168 29.396l-0.197 0.027-19.661 3.209c-6.441 25.59-16.036 48.084-28.565 68.589l0.61-1.074 11.537 16.128c4.053 5.544 6.485 12.496 6.485 20.016 0 7.989-2.744 15.336-7.342 21.152l0.055-0.072c-11.876 14.313-24.647 27.058-38.515 38.524l-0.483 0.388c-5.658 4.391-12.859 7.039-20.679 7.039-7.51 0-14.449-2.442-20.067-6.576l0.094 0.066-16.179-11.571c-19.408 11.882-41.872 21.453-65.735 27.522l-1.695 0.365-3.209 19.558c-2.442 15.033-14.452 26.649-29.482 28.468l-0.163 0.016c-8.226 0.937-17.759 1.472-27.418 1.472s-19.192-0.535-28.573-1.576l1.155 0.104c-15.079-1.884-26.985-13.42-29.413-28.151l-0.027-0.197-3.191-19.695c-10.285-2.602-18.679-5.278-26.865-8.379l1.691 0.562v381.577c18.851 0 34.133 15.282 34.133 34.133v0 51.2c0 18.851-15.282 34.133-34.133 34.133v0h-614.4c-18.851 0-34.133-15.282-34.133-34.133v0-51.2c0-18.851 15.282-34.133 34.133-34.133v0-682.667c0-18.851 15.282-34.133 34.133-34.133v0h439.757c4.507-10.065 8.884-18.352 13.712-26.337l-0.605 1.078-11.418-15.94c-4.133-5.579-6.615-12.597-6.615-20.195 0-7.985 2.742-15.33 7.336-21.144l-0.055 0.072c11.879-14.31 24.65-27.055 38.514-38.524l0.483-0.388c5.657-4.404 12.863-7.061 20.69-7.061 7.507 0 14.443 2.444 20.056 6.58l-0.093-0.066 16.162 11.571c19.433-11.881 41.927-21.453 65.818-27.521l1.698-0.366 3.209-19.558c2.442-15.033 14.452-26.649 29.482-28.468l0.163-0.016c8.225-0.934 17.759-1.466 27.418-1.466s19.192 0.533 28.574 1.57l-1.156-0.104c15.079 1.884 26.985 13.42 29.413 28.151l0.027 0.197 3.209 19.593c25.584 6.441 48.072 16.035 68.571 28.564l-1.072-0.609 16.128-11.537c5.543-4.051 12.493-6.481 20.011-6.481 8.083 0 15.51 2.81 21.357 7.506l-0.067-0.052c14.208 11.855 26.882 24.568 38.318 38.345l0.389 0.482c4.373 5.665 7.010 12.865 7.010 20.681 0 7.505-2.431 14.442-6.547 20.067l0.067-0.096-11.571 16.179c11.893 19.443 21.461 41.95 27.508 65.86l0.362 1.69 19.541 3.191c15.024 2.468 26.63 14.463 28.485 29.479l0.017 0.166c0.92 8.192 1.445 17.688 1.445 27.307s-0.525 19.115-1.547 28.462l0.103-1.155zM34.133 925.867h614.4v-51.2h-614.4zM68.267 840.533h546.133v-397.124c-2.731-1.519-5.513-2.918-8.209-4.54l-16.111 11.554c-5.54 4.069-12.494 6.511-20.019 6.511-7.992 0-15.34-2.755-21.148-7.367l0.070 0.054c-13.239-10.975-25.063-22.68-35.79-35.343l-0.34-0.412h-359.253c-18.851 0-34.133-15.282-34.133-34.133v0-34.133c0.039-12.508 6.823-23.423 16.905-29.302l0.162-0.087v-158.345h-68.267zM170.667 311.467h153.6v-153.6h-153.6zM153.6 345.6v34.133h351.095c1.174-3.725 2.83-6.965 4.932-9.86l-0.068 0.098 11.571-16.179c-1.621-2.679-3.038-5.461-4.54-8.192zM358.4 157.867v153.6h142.626c-2.558-6.507-5.251-14.906-7.49-23.487l-0.377-1.703-19.541-3.191c-15.012-2.463-26.604-14.467-28.417-29.482l-0.016-0.163c-0.934-8.233-1.466-17.776-1.466-27.443s0.533-19.21 1.57-28.601l-0.104 1.157c1.913-15.050 13.439-26.924 28.151-29.345l0.197-0.027 19.593-3.209c0.666-2.748 1.553-5.41 2.338-8.124zM988.638 202.871l-30.976-5.12c-7.041-1.186-12.557-6.547-13.959-13.407l-0.019-0.11c-5.858-29.152-16.938-54.969-32.304-77.645l0.475 0.743c-1.81-2.668-2.889-5.958-2.889-9.501 0-3.722 1.192-7.166 3.214-9.971l-0.035 0.050 18.773-25.088c-10.148-12.249-21.070-23.149-32.936-32.949l-0.413-0.331-25.463 18.313c-2.755 1.988-6.198 3.179-9.921 3.179-3.543 0-6.834-1.080-9.561-2.928l0.060 0.038c-21.933-14.891-47.751-25.971-75.546-31.6l-1.357-0.229c-6.969-1.42-12.331-6.937-13.503-13.877l-0.014-0.1-4.506-30.925c-7.071-0.799-15.267-1.254-23.569-1.254s-16.498 0.456-24.564 1.343l0.995-0.089-5.12 30.976c-1.186 7.041-6.547 12.557-13.407 13.959l-0.11 0.019c-29.152 5.858-54.969 16.938-77.645 32.304l0.743-0.475c-2.643 1.806-5.909 2.884-9.426 2.884-0.022 0-0.044 0-0.066 0h0.003c-0.006 0-0.013 0-0.019 0-3.719 0-7.16-1.19-9.964-3.209l0.051 0.035-24.9-18.944c-12.328 10.19-23.291 21.169-33.136 33.105l-0.331 0.414 18.261 25.515c1.993 2.757 3.188 6.205 3.188 9.933 0 3.538-1.076 6.824-2.92 9.549l0.038-0.060c-14.886 21.935-25.97 47.75-31.615 75.541l-0.231 1.362c-1.42 6.969-6.937 12.331-13.877 13.503l-0.1 0.014-30.891 4.403c-0.799 7.071-1.255 15.267-1.255 23.569s0.456 16.498 1.344 24.564l-0.089-0.995 30.959 5.12c7.041 1.186 12.557 6.547 13.959 13.407l0.019 0.11c5.877 29.152 16.96 54.967 32.322 77.648l-0.476-0.745c1.805 2.665 2.881 5.951 2.881 9.489 0 3.728-1.195 7.176-3.223 9.983l0.034-0.050-18.773 25.105c10.119 12.264 21.038 23.162 32.918 32.933l0.413 0.33 25.446-18.295c2.755-1.988 6.198-3.179 9.921-3.179 3.543 0 6.834 1.080 9.561 2.928l-0.060-0.038c21.935 14.885 47.751 25.964 75.543 31.599l1.359 0.23c6.969 1.42 12.331 6.937 13.503 13.877l0.014 0.1 4.471 30.925c7.071 0.799 15.267 1.254 23.569 1.254s16.498-0.456 24.564-1.343l-0.995 0.089 5.12-30.976c1.186-7.041 6.547-12.557 13.407-13.959l0.11-0.019c29.152-5.858 54.969-16.938 77.645-32.304l-0.743 0.475c2.668-1.81 5.958-2.889 9.501-2.889 3.722 0 7.166 1.192 9.971 3.214l-0.050-0.035 25.088 18.773c12.257-10.139 23.159-21.062 32.95-32.936l0.33-0.413-18.261-25.412c-1.988-2.755-3.179-6.198-3.179-9.921 0-3.543 1.080-6.834 2.928-9.561l-0.038 0.060c14.891-21.933 25.971-47.751 31.6-75.546l0.229-1.357c1.42-6.969 6.937-12.331 13.877-13.503l0.1-0.014 30.993-5.12c0.771-6.956 1.21-15.021 1.21-23.189 0-8.226-0.446-16.347-1.315-24.341l0.087 0.99z" />
<glyph unicode="&#xe917;" glyph-name="lamp" d="M576-64h-128c-29.867 0-64 25.6-64 76.8v89.6c0 42.667-21.333 81.067-55.467 110.933-76.8 59.733-115.2 145.067-115.2 238.933 4.267 162.133 136.533 290.133 294.4 294.4 81.067 0 157.867-29.867 213.333-85.333s89.6-132.267 89.6-213.333c0-89.6-38.4-174.933-110.933-230.4-38.4-29.867-59.733-76.8-59.733-119.467v-98.133c0-34.133-29.867-64-64-64zM512 704c-136.533 0-251.733-115.2-256-251.733 0-81.067 34.133-157.867 98.133-204.8 46.933-38.4 72.533-89.6 72.533-145.067v-89.6c0-8.533 0-34.133 21.333-34.133h128c12.8 0 21.333 8.533 21.333 21.333v98.133c0 55.467 29.867 115.2 76.8 153.6 59.733 46.933 93.867 119.467 93.867 196.267 0 68.267-25.6 132.267-76.8 183.467-46.933 46.933-110.933 72.533-179.2 72.533zM618.667 64h-213.333c-12.8 0-21.333 8.533-21.333 21.333s8.533 21.333 21.333 21.333h213.333c12.8 0 21.333-8.533 21.333-21.333s-8.533-21.333-21.333-21.333zM512 832c-12.8 0-21.333 8.533-21.333 21.333v85.333c0 12.8 8.533 21.333 21.333 21.333s21.333-8.533 21.333-21.333v-85.333c0-12.8-8.533-21.333-21.333-21.333zM797.867 712.533c-4.267 0-12.8 0-17.067 4.267-8.533 8.533-8.533 21.333 0 29.867l59.733 59.733c8.533 8.533 21.333 8.533 29.867 0s8.533-21.333 0-29.867l-59.733-59.733s-8.533-4.267-12.8-4.267zM1002.667 426.667h-85.333c-12.8 0-21.333 8.533-21.333 21.333s8.533 21.333 21.333 21.333h85.333c12.8 0 21.333-8.533 21.333-21.333s-8.533-21.333-21.333-21.333zM857.6 81.067c-4.267 0-12.8 0-17.067 4.267l-59.733 59.733c-8.533 8.533-8.533 21.333 0 29.867s21.333 8.533 29.867 0l59.733-59.733c8.533-8.533 8.533-21.333 0-29.867 0-4.267-4.267-4.267-12.8-4.267zM166.4 81.067c-4.267 0-12.8 0-17.067 4.267-8.533 8.533-8.533 21.333 0 29.867l59.733 59.733c8.533 8.533 21.333 8.533 29.867 0s8.533-21.333 0-29.867l-59.733-59.733c-4.267-4.267-8.533-4.267-12.8-4.267zM106.667 426.667h-85.333c-12.8 0-21.333 8.533-21.333 21.333s8.533 21.333 21.333 21.333h85.333c12.8 0 21.333-8.533 21.333-21.333s-8.533-21.333-21.333-21.333zM226.133 712.533c-4.267 0-12.8 0-17.067 4.267l-59.733 64c-8.533 8.533-8.533 21.333 0 29.867s21.333 8.533 29.867 0l59.733-59.733c8.533-8.533 8.533-21.333 0-29.867-4.267-4.267-8.533-8.533-12.8-8.533zM682.667 426.667c-12.8 0-21.333 8.533-21.333 21.333 0 81.067-68.267 149.333-149.333 149.333-12.8 0-21.333 8.533-21.333 21.333s8.533 21.333 21.333 21.333c106.667 0 192-85.333 192-192 0-12.8-8.533-21.333-21.333-21.333z" />
<glyph unicode="&#xe918;" glyph-name="license" d="M938.667 499.2h-165.973c45.215 42.106 78.233 95.63 95.573 154.931 2.919 10.287 2.919 21.184 0 31.471-43.571 151.518-190.037 257.331-356.267 257.331s-312.695-105.813-356.198-257.331c-2.919-10.287-2.919-21.184 0-31.471 17.321-59.294 50.315-112.817 95.505-154.931h-165.973c-47.105-0.056-85.277-38.228-85.333-85.333v-375.467c0.056-47.105 38.228-85.277 85.333-85.333h853.333c47.105 0.056 85.277 38.228 85.333 85.333v375.467c-0.056 47.105-38.228 85.277-85.333 85.333zM188.604 663.569c-1.178 4.116-1.178 8.479 0 12.595 39.322 136.977 172.305 232.636 323.396 232.636s284.075-95.659 323.396-232.636c1.178-4.116 1.178-8.479 0-12.595-39.322-137.062-172.305-232.636-323.396-232.636s-284.075 95.573-323.396 232.636zM989.867 38.4c0-28.277-22.923-51.2-51.2-51.2h-853.333c-28.277 0-51.2 22.923-51.2 51.2v375.467c0 28.277 22.923 51.2 51.2 51.2h207.923c131.625-91.024 305.862-91.024 437.487 0h207.923c28.277 0 51.2-22.923 51.2-51.2zM324.267 55.467h-102.4c-9.426 0-17.067-7.641-17.067-17.067s7.641-17.067 17.067-17.067h102.4c9.426 0 17.067 7.641 17.067 17.067s-7.641 17.067-17.067 17.067zM563.2 55.467h-102.4c-9.426 0-17.067-7.641-17.067-17.067s7.641-17.067 17.067-17.067h102.4c9.426 0 17.067 7.641 17.067 17.067s-7.641 17.067-17.067 17.067zM802.133 55.467h-102.4c-9.426 0-17.067-7.641-17.067-17.067s7.641-17.067 17.067-17.067h102.4c9.426 0 17.067 7.641 17.067 17.067s-7.641 17.067-17.067 17.067zM153.6 157.867v170.667c-0.001 6.902-4.16 13.123-10.536 15.764s-13.716 1.182-18.597-3.698l-34.133-34.133c-6.468-6.697-6.375-17.341 0.208-23.924s17.228-6.676 23.924-0.208l5.001 5.001v-129.468h-34.133c-9.426 0-17.067-7.641-17.067-17.067s7.641-17.067 17.067-17.067h68.267c9.426 0 17.067 7.641 17.067 17.067s-7.641 17.067-17.067 17.067zM290.133 123.733c9.426 0 17.067 7.641 17.067 17.067s-7.641 17.067-17.067 17.067h-42.496c26.47 28.348 59.563 73.097 59.563 119.467 2.159 35.279-24.48 65.723-59.733 68.267-35.253-2.544-61.892-32.988-59.733-68.267 0-9.426 7.641-17.067 17.067-17.067s17.067 7.641 17.067 17.067c0 18.5 11.725 34.133 25.6 34.133s25.6-15.633 25.6-34.133c0-59.17-78.148-122.59-78.933-123.221-5.648-4.531-7.822-12.134-5.423-18.966s8.848-11.407 16.090-11.413zM441.634 234.667c12.377 12.472 19.275 29.362 19.166 46.933 1.094 34.136-25.603 62.74-59.733 64-34.131-1.26-60.827-29.864-59.733-64 0-9.426 7.641-17.067 17.067-17.067s17.067 7.641 17.067 17.067c-1.071 15.281 10.335 28.588 25.6 29.867 14.724-2.288 25.584-14.966 25.584-29.867s-10.86-27.579-25.584-29.867c-9.426 0-17.067-7.641-17.067-17.067s7.641-17.067 17.067-17.067c14.724-2.288 25.584-14.966 25.584-29.867s-10.86-27.579-25.584-29.867c-15.265 1.279-26.671 14.585-25.6 29.867 0 9.426-7.641 17.067-17.067 17.067s-17.067-7.641-17.067-17.067c-1.094-34.136 25.603-62.74 59.733-64 34.131 1.26 60.827 29.864 59.733 64 0.109 17.571-6.789 34.461-19.166 46.933zM613.888 349.73c-1.903 7.593-8.727 12.918-16.555 12.918s-14.652-5.325-16.555-12.918l-51.2-204.8c-1.637-5.971 0.087-12.361 4.507-16.697s10.841-5.938 16.78-4.186c5.939 1.752 10.463 6.582 11.822 12.623l13.824 55.33h41.643l13.824-55.33c1.896-7.6 8.722-12.934 16.555-12.937 1.398 0.003 2.79 0.175 4.147 0.512 9.141 2.283 14.703 11.542 12.425 20.685zM585.062 226.133l12.271 49.101 12.271-49.101zM699.733 123.733h51.2c28.277 0 51.2 22.923 51.2 51.2v34.133c-0.044 12.636-4.79 24.804-13.312 34.133 8.522 9.33 13.268 21.497 13.312 34.133v34.133c0 28.277-22.923 51.2-51.2 51.2h-51.2c-9.426 0-17.067-7.641-17.067-17.067v-204.8c0-9.426 7.641-17.067 17.067-17.067zM768 174.933c0-9.426-7.641-17.067-17.067-17.067h-34.133v68.267h34.133c9.426 0 17.067-7.641 17.067-17.067zM716.8 328.533h34.133c9.426 0 17.067-7.641 17.067-17.067v-34.133c0-9.426-7.641-17.067-17.067-17.067h-34.133zM887.467 328.533c18.851 0 34.133-15.282 34.133-34.133 0-9.426 7.641-17.067 17.067-17.067s17.067 7.641 17.067 17.067c0 37.703-30.564 68.267-68.267 68.267s-68.267-30.564-68.267-68.267v-102.4c0-37.703 30.564-68.267 68.267-68.267s68.267 30.564 68.267 68.267c0 9.426-7.641 17.067-17.067 17.067s-17.067-7.641-17.067-17.067c0-18.851-15.282-34.133-34.133-34.133s-34.133 15.282-34.133 34.133v102.4c0 18.851 15.282 34.133 34.133 34.133zM512 465.067c113.108 0 204.8 91.692 204.8 204.8s-91.692 204.8-204.8 204.8-204.8-91.692-204.8-204.8c0.122-113.057 91.743-204.678 204.8-204.8zM512 840.533c94.257 0 170.667-76.41 170.667-170.667s-76.41-170.667-170.667-170.667-170.667 76.41-170.667 170.667c0.103 94.214 76.453 170.563 170.667 170.667zM427.605 682.411c-0.625-4.152-0.939-8.345-0.939-12.544 0-47.128 38.205-85.333 85.333-85.333s85.333 38.205 85.333 85.333-38.205 85.333-85.333 85.333c-4.199 0-8.392-0.314-12.544-0.939-12.425 14.656-32.036 21.080-50.725 16.618s-33.281-19.055-37.744-37.744c-4.463-18.689 1.962-38.299 16.618-50.725zM563.2 669.867c0-28.277-22.923-51.2-51.2-51.2s-51.2 22.923-51.2 51.2c28.277 0 51.2 22.923 51.2 51.2 28.277 0 51.2-22.923 51.2-51.2zM460.8 738.133c9.426 0 17.067-7.641 17.067-17.067s-7.641-17.067-17.067-17.067-17.067 7.641-17.067 17.067 7.641 17.067 17.067 17.067z" />
<glyph unicode="&#xe919;" glyph-name="management" d="M896 401.6v32c8.831 0 16 7.163 16 16v96c0 8.838-7.169 16-16 16h-86.4l-3.1 12.019c-7.075 27.488-18.063 53.819-32.644 78.175l-6.4 10.706 61.344 61.45c6.175 6.188 6.175 16.213 0 22.4l-67.95 68.050c-6.275 5.981-16.131 5.981-22.406 0l-61.456-61.456-10.7 6.4c-24.394 14.588-50.75 25.575-78.275 32.656l-12.013 3.125v86.475c0 8.838-7.163 16-16 16h-96c-8.838 0-16-7.163-16-16v-86.4l-12.019-3.106c-27.488-7.069-53.819-18.056-78.188-32.619l-10.706-6.406-61.438 61.331c-6.281 6.031-16.2 6.031-22.481 0l-67.969-67.95c-2.988-2.981-4.669-7.031-4.669-11.25 0-4.225 1.681-8.269 4.669-11.25l61.456-61.45-6.4-10.706c-14.575-24.356-25.569-50.688-32.638-78.175l-3.138-12.019h-86.481c-8.838 0-16-7.163-16-16v-96c0-8.838 7.163-16 16-16v-32c-26.506 0-48 21.494-48 48v96c0 26.506 21.494 48 48 48h61.906c6.6 22.125 15.525 43.488 26.625 63.725l-44 44c-9 8.981-14.056 21.169-14.056 33.875s5.056 24.894 14.056 33.869l68 68c18.944 18.131 48.813 18.131 67.756 0l43.988-43.981c20.238 11.094 41.606 20 63.725 26.594v61.919c0 26.506 21.494 48 48 48h96c26.506 0 48-21.494 48-48v-61.919c22.125-6.594 43.481-15.519 63.725-26.613l44 44c18.95 18.131 48.813 18.131 67.763 0l67.988-67.981c8.994-8.981 14.044-21.156 14.044-33.869s-5.050-24.9-14.044-33.875l-44-44c11.094-20.25 20.013-41.619 26.619-63.744h61.906c26.506 0 48-21.494 48-48v-96c0-26.506-21.494-48-48-48zM736 497.6h-32c0 106.038-85.963 192-192 192s-192-85.963-192-192h-32c0 123.713 100.288 224 224 224 123.706 0 224-100.288 224-224zM512 369.6c-53.019 0-96 42.988-96 96 0 53.019 42.981 96 96 96 53.025 0 96-42.981 96-96-0.056-53-43-95.944-96-96zM512 529.6c-35.344 0-64-28.656-64-64s28.656-64 64-64 64 28.656 64 64-28.656 64-64 64zM784 305.6c-53.019 0-96 42.988-96 96 0 53.019 42.981 96 96 96s96-42.981 96-96c-0.056-53-43-95.944-96-96zM784 465.6c-35.344 0-64-28.656-64-64s28.656-64 64-64 64 28.656 64 64-28.656 64-64 64zM240 305.6c-53.019 0-96 42.988-96 96 0 53.019 42.981 96 96 96 53.025 0 96-42.981 96-96-0.056-53-43-95.944-96-96zM240 465.6c-35.344 0-64-28.656-64-64s28.656-64 64-64 64 28.656 64 64-28.656 64-64 64zM929.050 264.55c-23.844 16.388-52.113 25.131-81.050 25.050h-128c-7.781-0.069-15.55-0.775-23.219-2.106-10.238 16.013-23.556 29.825-39.181 40.656-2.344 1.769-4.806 3.375-7.375 4.794-22.381 13.556-48.063 20.694-74.225 20.656h-128c-48.931 0.175-94.525-24.794-120.738-66.106-7.688 1.331-15.469 2.037-23.263 2.106h-128c-28.913 0.081-57.175-8.65-81.006-25.019-39.388-26.8-62.969-71.344-62.994-118.981v-64c0.056-43.688 25.475-83.363 65.156-101.663 14.65-6.9 30.656-10.431 46.844-10.338h160v32h-144v176h-32v-174.394c-6.025 1.206-11.875 3.156-17.425 5.788-28.344 13.069-46.513 41.4-46.575 72.606v64c0.038 37.075 18.406 71.731 49.056 92.581 18.519 12.713 40.475 19.481 62.944 19.419h128c2.819 0 5.538-0.3 8.288-0.488-5.413-15.263-8.219-31.325-8.288-47.513v-160c0.056-44.163 35.844-79.944 80-80h48v256h-32v-224h-16c-26.506 0-48 21.494-48 48v160c0 61.863 50.15 112 112 112h128c20.588-0.012 40.763-5.713 58.319-16.463 1.625-0.888 3.187-1.888 4.669-2.988 14.994-10.269 27.3-23.988 35.875-40 8.619-16.175 13.138-34.219 13.138-52.55v-160c0-26.506-21.494-48-48-48h-16v224h-32v-256h48c44.163 0.056 79.944 35.838 80 80v160c-0.075 16.188-2.869 32.244-8.275 47.513 2.756 0.188 5.475 0.488 8.275 0.488h128c22.481 0.062 44.456-6.725 62.988-19.45 30.625-20.863 48.969-55.494 49.013-92.55v-64c-0.056-31.319-18.363-59.731-46.844-72.731-5.469-2.588-11.231-4.488-17.156-5.663v174.394h-32v-176h-144v-32h160c16.094-0.1 32.006 3.388 46.575 10.213 39.813 18.244 65.363 57.994 65.425 101.788v64c-0.025 47.619-23.588 92.144-62.95 118.95zM448 1.6h128v-32h-128z" />
<glyph unicode="&#xe91a;" glyph-name="manufacturing" d="M392.688 633.297c-57.258-37.008-92.344-100.070-93.617-168.227 0-9.43 7.641-17.070 17.063-17.070 9.43 0 17.070 7.641 17.070 17.070 1.172 56.211 30.016 108.227 77.078 138.984 7.922 4.93 10.414 15.305 5.609 23.297-4.813 7.984-15.148 10.641-23.203 5.945zM913.469 533.336c-40.531-0.055-75.453-28.57-83.609-68.266h-208.25c-3.945 18.688-14.070 35.5-28.742 47.734l57.664 105.859h59.859c8.766-42.922 48.602-72.234 92.188-67.828 43.586 4.398 76.758 41.094 76.758 84.898s-33.172 80.5-76.758 84.898c-43.586 4.406-83.422-24.914-92.188-67.836h-52.922v112.406l58.266 58.266h79.992c8.758-42.922 48.602-72.242 92.188-67.836 43.586 4.398 76.758 41.094 76.758 84.898 0 43.813-33.172 80.5-76.758 84.906-43.586 4.398-83.43-24.914-92.188-67.836h-79.992c-9.047-0.023-17.719-3.617-24.133-10l-14.633-14.641c-11.992 4.438-24.195 8.273-36.57 11.484v81.422c-0.023 18.844-15.289 34.109-34.133 34.133h-136.531c-18.844-0.023-34.109-15.289-34.133-34.133v-81.406c-37.102-9.461-72.672-24.156-105.633-43.625l-57.25 57.258c-6.383 6.578-15.172 10.281-24.344 10.258h-0.031c-9.086 0.039-17.805-3.609-24.148-10.117l-96.281-96.266c-6.539-6.375-10.234-15.109-10.266-24.234-0.023-9.133 3.617-17.891 10.117-24.305l57.383-57.391c-19.469-32.969-34.156-68.539-43.633-105.641h-81.383c-18.844-0.023-34.109-15.289-34.133-34.133v-136.531c0.023-18.844 15.289-34.109 34.133-34.133h81.383c9.477-37.102 24.164-72.672 43.633-105.641l-57.234-57.234c-6.539-6.375-10.234-15.109-10.266-24.234-0.023-9.133 3.617-17.891 10.117-24.297l96.281-96.273c6.367-6.586 15.141-10.297 24.305-10.273h0.031c9.102-0.039 17.82 3.609 24.188 10.117l57.398 57.391c32.961-19.469 68.531-34.164 105.633-43.625v-81.398c0.023-18.844 15.289-34.109 34.133-34.133h136.531c18.844 0.023 34.109 15.289 34.133 34.133v81.422c12.375 3.211 24.578 7.047 36.57 11.484l14.633-14.641c6.414-6.383 15.086-9.977 24.133-10h79.992c8.758-42.922 48.602-72.234 92.188-67.836 43.586 4.406 76.758 41.094 76.758 84.906 0 43.805-33.172 80.5-76.758 84.898-43.586 4.406-83.43-24.914-92.188-67.836h-79.992l-58.266 58.266v112.406h52.922c8.766-42.922 48.602-72.242 92.188-67.836 43.586 4.398 76.758 41.094 76.758 84.898s-33.172 80.5-76.758 84.898c-43.586 4.406-83.422-24.906-92.188-67.828h-59.859l-57.664 105.859c14.672 12.234 24.797 29.047 28.742 47.734h208.25c8.984-43.992 50.523-73.508 95.031-67.492 44.5 6.008 76.734 45.484 73.719 90.289s-40.234 79.609-85.141 79.609zM879.336 891.734c28.273 0 51.195-22.922 51.195-51.203 0-28.273-22.922-51.195-51.195-51.195-28.281 0-51.203 22.922-51.203 51.195 0.031 28.266 22.938 51.172 51.203 51.203zM879.336 106.664c28.273 0 51.195-22.922 51.195-51.195 0-28.281-22.922-51.203-51.195-51.203-28.281 0-51.203 22.922-51.203 51.203 0.031 28.266 22.938 51.164 51.203 51.195zM538 396.797c-28.273 0-51.203 22.93-51.203 51.203s22.93 51.203 51.203 51.203 51.203-22.93 51.203-51.203c-0.031-28.266-22.938-51.172-51.203-51.203zM794 686.93c28.273 0 51.203-22.922 51.203-51.195 0-28.281-22.93-51.203-51.203-51.203s-51.203 22.922-51.203 51.203c0.031 28.266 22.938 51.164 51.203 51.195zM619.633 81.68c-7.813-1.727-13.367-8.656-13.367-16.656v-94.891h-136.531v94.891c0 8.023-5.586 14.961-13.414 16.672-42.523 9.32-83.063 26.055-119.773 49.445-6.75 4.266-15.555 3.297-21.211-2.344l-67-66.898-96.43 96.531 66.898 66.898c5.656 5.656 6.625 14.477 2.336 21.219-23.383 36.711-40.125 77.258-49.453 119.766-1.711 7.836-8.648 13.414-16.664 13.422h-94.891v136.531h94.891c8.016 0 14.953 5.586 16.664 13.414 9.328 42.516 26.070 83.063 49.453 119.773 4.289 6.742 3.32 15.563-2.336 21.211l-66.898 67.008 96.531 96.43 66.898-66.898c5.656-5.656 14.477-6.633 21.219-2.344 36.711 23.391 77.25 40.125 119.766 49.438 7.836 1.719 13.414 8.664 13.414 16.68v94.891h136.531v-94.891c0-8 5.555-14.93 13.367-16.656 10.555-2.352 20.703-5.125 30.516-8.172l-16.813-16.813c-6.43-6.391-10.023-15.078-10-24.133v-22.117c-125.5 36.328-260.242-10.688-335.891-117.211-75.656-106.516-75.656-249.234 0-355.75 75.648-106.523 210.391-153.539 335.891-117.211v-22.117c-0.023-9.055 3.578-17.742 10-24.133l16.813-16.805c-9.813-3.063-19.961-5.828-30.516-8.18zM794 311.469c28.273 0 51.203-22.922 51.203-51.203 0-28.273-22.93-51.195-51.203-51.195s-51.203 22.922-51.203 51.195c0.031 28.266 22.938 51.172 51.203 51.203zM623.336 255.922v-67.109c-112.672-37.359-236.578 2.344-306.539 98.242-69.969 95.891-69.969 226 0 321.891 69.961 95.898 193.867 135.602 306.539 98.242v-67.109l-60.406-110.891c-8.055 2.625-16.461 4.023-24.93 4.148-47.125 0-85.336-38.211-85.336-85.336s38.211-85.336 85.336-85.336c8.469 0.125 16.875 1.523 24.93 4.148zM913.469 396.797c-28.281 0-51.203 22.93-51.203 51.203s22.922 51.203 51.203 51.203c28.273 0 51.195-22.93 51.195-51.203-0.031-28.266-22.93-51.172-51.195-51.203z" />
<glyph unicode="&#xe91b;" glyph-name="patient" d="M512 736h160v-32h-160zM512 672h160v-32h-160zM512 608h160v-32h-160zM512 544h160v-32h-160zM333.952 706.912c5.387-1.846 11.593-2.912 18.048-2.912s12.661 1.066 18.452 3.031l-0.404-0.119c5.871-20.24 24.196-34.805 45.94-34.912h16.012c8.837 0 16-7.163 16-16v0-48h32v48c0 26.51-21.49 48-48 48v0h-16c-8.837 0-16 7.163-16 16v0 6.112c9.88 11.091 15.938 25.776 16 41.875v32.013c0 35.346-28.654 64-64 64s-64-28.654-64-64v0-32c0.062-16.112 6.12-30.797 16.056-41.951l-0.056 0.063v-6.112c0-8.837-7.163-16-16-16v0h-16c-26.51 0-48-21.49-48-48v0-48h32v48c0 8.837 7.163 16 16 16v0h16c21.756 0.107 40.081 14.672 45.868 34.573l0.084 0.339zM320 800c0 17.673 14.327 32 32 32s32-14.327 32-32v0-32c0-17.673-14.327-32-32-32s-32 14.327-32 32v0zM528 768h128c8.837 0 16 7.163 16 16v0 64c0 8.837-7.163 16-16 16v0h-128c-8.837 0-16-7.163-16-16v0-64c0-8.837 7.163-16 16-16v0zM544 832h96v-32h-96zM992 512c-0.055 52.997-43.003 95.945-95.995 96h-96.005v240c0 8.837-7.163 16-16 16v0h-48v48c0 8.837-7.163 16-16 16v0h-544c-8.837 0-16-7.163-16-16v0-352h-48c-44.161-0.055-79.945-35.839-80-79.995v-432.005c0.055-44.161 35.839-79.945 79.995-80h672.005c42.865 0.155 77.776 33.997 79.642 76.423l0.006 0.169 127.776 463.152c0.366 1.275 0.576 2.74 0.576 4.254 0 0.001 0 0.001 0 0.002v0zM768 832v-352h-32v352zM192 896h512v-416h-313.376l-75.312 75.312c-2.895 2.896-6.894 4.687-11.312 4.688h-112zM832 48c0-26.51-21.49-48-48-48v0h-672c-26.51 0-48 21.49-48 48v0 432c0 26.51 21.49 48 48 48v0h185.376l75.312-75.312c2.895-2.896 6.894-4.687 11.312-4.688h400c26.51 0 48-21.49 48-48v0zM864 166.16v233.84c-0.050 38.505-27.247 70.644-63.477 78.307l-0.523 0.093v97.6h96c0.010 0 0.021 0 0.033 0 34.626 0 62.83-27.498 63.965-61.848l0.003-0.104zM608 304h-80v80c0 8.837-7.163 16-16 16v0h-128c-8.837 0-16-7.163-16-16v0-80h-80c-8.837 0-16-7.163-16-16v0-128c0-8.837 7.163-16 16-16v0h80v-80c0-8.837 7.163-16 16-16v0h128c8.837 0 16 7.163 16 16v0 80h80c8.837 0 16 7.163 16 16v0 128c0 8.837-7.163 16-16 16v0zM592 176h-80c-8.837 0-16-7.163-16-16v0-80h-96v80c0 8.837-7.163 16-16 16v0h-80v96h80c8.837 0 16 7.163 16 16v0 80h96v-80c0-8.837 7.163-16 16-16v0h80z" />
<glyph unicode="&#xe91c;" glyph-name="server" d="M352 640h192v-32h-192zM576 640h32v-32h-32zM640 640h32v-32h-32zM352 512h192v-32h-192zM576 512h32v-32h-32zM640 512h32v-32h-32zM352 384h192v-32h-192zM576 384h32v-32h-32zM640 384h32v-32h-32zM928 272c-29.649-0.039-54.578-20.197-61.872-47.552l-0.102-0.448h-178.026v64c26.497 0.032 47.968 21.503 48 47.997v48.003h96c88.316 0.066 159.884 71.675 159.884 160 0 88.366-71.634 160-160 160-9.172 0-18.164-0.772-26.914-2.254l0.942 0.132c-35.628 131.227-153.684 226.151-293.911 226.151-115.571 0-216.082-64.478-267.524-159.424l-0.795-1.605c-5.902 0.636-12.749 0.999-19.681 1h-0.001c-106.039 0-192-85.961-192-192s85.961-192 192-192v0h64v-48c0.032-26.497 21.503-47.968 47.997-48h0.003v-64h-178.026c-7.359 27.823-32.307 48-61.968 48-35.346 0-64-28.654-64-64s28.654-64 64-64c29.66 0 54.608 20.177 61.867 47.553l0.101 0.447h194.026c8.837 0 16 7.163 16 16v0 80h32v-128h-128c-8.837 0-16-7.163-16-16v0-50.026c-27.823-7.359-48-32.307-48-61.968 0-35.346 28.654-64 64-64s64 28.654 64 64c0 29.66-20.177 54.608-47.553 61.867l-0.447 0.101v34.026h128c8.837 0 16 7.163 16 16v0 144h64v-162.026c-27.823-7.359-48-32.307-48-61.968 0-35.346 28.654-64 64-64s64 28.654 64 64c0 29.66-20.177 54.608-47.553 61.867l-0.447 0.101v162.026h64v-144c0-8.837 7.163-16 16-16v0h128v-34.026c-27.823-7.359-48-32.307-48-61.968 0-35.346 28.654-64 64-64s64 28.654 64 64c0 29.66-20.177 54.608-47.553 61.867l-0.447 0.101v50.026c0 8.837-7.163 16-16 16v0h-128v128h32v-80c0-8.837 7.163-16 16-16v0h194.026c7.359-27.823 32.307-48 61.968-48 35.346 0 64 28.654 64 64 0 35.344-28.65 63.996-63.993 64v0zM96 176c-17.673 0-32 14.327-32 32s14.327 32 32 32c17.673 0 32-14.327 32-32v0c-0.022-17.664-14.336-31.978-31.998-32h-0.002zM304 32c0-17.673-14.327-32-32-32s-32 14.327-32 32c0 17.673 14.327 32 32 32v0c17.664-0.022 31.978-14.336 32-31.998v-0.002zM544 64c0-17.673-14.327-32-32-32s-32 14.327-32 32c0 17.673 14.327 32 32 32v0c17.664-0.022 31.978-14.336 32-31.998v-0.002zM784 32c0-17.673-14.327-32-32-32s-32 14.327-32 32c0 17.673 14.327 32 32 32v0c17.664-0.022 31.978-14.336 32-31.998v-0.002zM320 592v64c0.010 8.832 7.168 15.99 15.999 16h352.001c8.832-0.010 15.99-7.168 16-15.999v-64.001c-0.010-8.832-7.168-15.99-15.999-16h-352.001c-8.832 0.010-15.99 7.168-16 15.999v0.001zM320 464v64c0.010 8.832 7.168 15.99 15.999 16h352.001c8.832-0.010 15.99-7.168 16-15.999v-64.001c-0.010-8.832-7.168-15.99-15.999-16h-352.001c-8.832 0.010-15.99 7.168-16 15.999v0.001zM64 576c0.104 88.324 71.676 159.897 159.99 160h0.010c0.011 0 0.024 0 0.038 0 9.239 0 18.298-0.774 27.114-2.261l-0.952 0.133c0.785-0.137 1.69-0.215 2.613-0.215 6.293 0 11.737 3.636 14.345 8.921l0.042 0.094c45.118 91.496 137.735 153.331 244.793 153.331 130.533 0 239.596-91.925 265.984-214.571l0.322-1.788c1.562-7.328 7.981-12.745 15.666-12.745 1.513 0 2.978 0.21 4.365 0.603l-0.113-0.027c10.116 2.874 21.733 4.526 33.737 4.526 70.692 0 128-57.308 128-128 0-70.677-57.282-127.974-127.952-128h-98.754c-2.233 6.185-5.464 11.506-9.549 16.044l0.039-0.044c7.608 8.431 12.262 19.656 12.262 31.967 0 0.012 0 0.023 0 0.035v-0.002 64c0 0.010 0 0.021 0 0.033 0 12.311-4.654 23.536-12.3 32.009l0.038-0.042c7.608 8.431 12.262 19.656 12.262 31.967 0 0.012 0 0.023 0 0.035v-0.002 64c-0.032 26.497-21.503 47.968-47.997 48h-352.003c-26.497-0.032-47.968-21.503-48-47.997v-64.003c0-0.010 0-0.021 0-0.033 0-12.311 4.654-23.536 12.3-32.009l-0.038 0.042c-7.608-8.431-12.262-19.656-12.262-31.967 0-0.012 0-0.023 0-0.035v0.002-64c0-0.010 0-0.021 0-0.033 0-12.311 4.654-23.536 12.3-32.009l-0.038 0.042c-4.046-4.494-7.277-9.815-9.404-15.666l-0.106-0.334h-66.752c-88.324 0.104-159.897 71.676-160 159.99v0.010zM320 336v64c0.010 8.832 7.168 15.99 15.999 16h352.001c8.832-0.010 15.99-7.168 16-15.999v-64.001c-0.010-8.832-7.168-15.99-15.999-16h-352.001c-8.832 0.010-15.99 7.168-16 15.999v0.001zM928 176c-17.673 0-32 14.327-32 32s14.327 32 32 32c17.673 0 32-14.327 32-32v0c-0.022-17.664-14.336-31.978-31.998-32h-0.002z" />
<glyph unicode="&#xe91d;" glyph-name="summary" d="M754.036 883.976h-93.091c-7.758 34.133-37.236 60.509-71.37 60.509h-52.752c-35.685 0-65.164-26.376-71.37-60.509h-93.091c-9.309 0-15.515-6.206-15.515-15.515v-29.479h-136.533c-26.376 0-48.097-23.273-48.097-51.2v-349.091c-65.164-43.442-103.952-114.812-103.952-193.939 0-77.576 38.788-150.497 102.4-193.939v-48.097c0-27.927 21.721-51.2 48.097-51.2h687.321c26.376 0 48.097 23.273 48.097 51.2v785.067c0 27.927-21.721 51.2-48.097 51.2h-136.533v29.479c0 7.758-6.206 15.515-15.515 15.515zM387.879 852.945h91.539c9.309 0 15.515 6.206 15.515 15.515 0 24.824 18.618 44.994 41.891 44.994h52.752c23.273 0 41.891-20.17 41.891-44.994 0-9.309 6.206-15.515 15.515-15.515h91.539c0-1.552 0-60.509 0-58.958h-350.642zM99.297 244.752c0 186.182 229.624 276.17 356.848 139.636 122.57-131.879 27.927-344.436-150.497-344.436-113.261 0-206.352 89.988-206.352 204.8zM907.636 807.952c9.309 0 17.067-9.309 17.067-20.17v-786.618c0-10.861-7.758-20.17-17.067-20.17h-688.873c-9.309 0-17.067 9.309-17.067 20.17v31.030c32.582-15.515 66.715-23.273 103.952-23.273 91.539 0 173.77 52.752 212.558 133.43h333.576c9.309 0 15.515 6.206 15.515 15.515s-6.206 15.515-15.515 15.515h-321.164c7.758 23.273 10.861 46.545 10.861 71.37 0 4.655 0 10.861 0 15.515h310.303c9.309 0 15.515 6.206 15.515 15.515s-6.206 15.515-15.515 15.515h-314.958c-6.206 31.030-18.618 60.509-37.236 86.885h352.194c9.309 0 15.515 6.206 15.515 15.515s-6.206 15.515-15.515 15.515h-378.57c-44.994 44.994-105.503 71.37-169.115 71.37-35.685 0-71.37-7.758-103.952-23.273v330.473c0 10.861 7.758 20.17 17.067 20.17h139.636v-29.479c0-9.309 6.206-15.515 15.515-15.515h381.673c9.309 0 15.515 6.206 15.515 15.515v29.479zM563.2 897.939c-23.273 0-43.442-20.17-43.442-44.994s20.17-44.994 43.442-44.994 43.442 20.17 43.442 44.994-20.17 44.994-43.442 44.994zM563.2 838.982c-6.206 0-12.412 6.206-12.412 13.964s6.206 13.964 12.412 13.964 12.412-6.206 12.412-13.964-6.206-13.964-12.412-13.964zM335.127 648.145h-60.509c-9.309 0-15.515-6.206-15.515-15.515s6.206-15.515 15.515-15.515h60.509c9.309 0 15.515 6.206 15.515 15.515s-6.206 15.515-15.515 15.515zM335.127 528.679h-60.509c-9.309 0-15.515-6.206-15.515-15.515s6.206-15.515 15.515-15.515h60.509c9.309 0 15.515 6.206 15.515 15.515s-6.206 15.515-15.515 15.515zM420.461 632.63c0-9.309 6.206-15.515 15.515-15.515h415.806c9.309 0 15.515 6.206 15.515 15.515s-6.206 15.515-15.515 15.515h-415.806c-7.758 0-15.515-7.758-15.515-15.515zM851.782 528.679h-415.806c-9.309 0-15.515-6.206-15.515-15.515s6.206-15.515 15.515-15.515h415.806c9.309 0 15.515 6.206 15.515 15.515s-7.758 15.515-15.515 15.515zM269.964 160.97c4.655 0 7.758 1.552 10.861 4.655l138.085 138.085c6.206 6.206 6.206 15.515 0 21.721s-15.515 6.206-21.721 0l-127.224-127.224-55.855 55.855c-6.206 6.206-15.515 6.206-21.721 0s-6.206-15.515 0-21.721l66.715-66.715c1.552-3.103 6.206-4.655 10.861-4.655z" />
<glyph unicode="&#xe91e;" glyph-name="support" d="M882.075 536.713h-2.535v62.099c0 199.478-161.707 361.188-361.188 361.188s-361.188-161.71-361.188-361.188v-62.099h-15.207c-55.763 0-98.851-49.424-98.851-106.456v-158.415c-1.405-55.275 42.269-101.224 97.544-102.628 0.437-0.012 0.871-0.019 1.307-0.024h93.782c13.283 0.623 23.547 11.901 22.921 25.184-0.022 0.478-0.058 0.956-0.109 1.431v310.495c0 15.207-8.871 30.416-22.812 30.416h-27.881v62.099c0 171.481 139.014 310.495 310.495 310.495s310.495-139.014 310.495-310.495v-62.099h-27.881c-13.941 0-22.812-15.207-22.812-30.416v-310.495c-1.414-13.223 8.158-25.089 21.38-26.504 0.475-0.051 0.953-0.087 1.431-0.109h29.148l-2.535-3.801c-38.028-50.54-97.702-80.142-160.95-79.841-13.846 67.894-80.113 111.71-148.007 97.862-58.060-11.84-99.921-62.688-100.389-121.942 0.694-69.497 57.233-125.469 126.733-125.464 34.404 0.558 67.198 14.676 91.247 39.287 16.226 16.616 26.858 37.883 30.416 60.833 79.205-0.301 153.901 36.813 201.504 100.118l24.080 35.486c54.494 3.801 88.712 38.019 88.712 87.446v158.415c0.002 54.489-40.551 119.123-98.849 119.123zM207.857 219.882h-65.9c-27.29 0.665-48.874 23.324-48.209 50.613 0.012 0.449 0.029 0.898 0.051 1.349v158.415c0 29.148 20.277 55.763 48.158 55.763h65.9v-266.14zM599.461 10.773c-14.045-15.229-33.778-23.949-54.494-24.080-41.233 0.655-74.693 33.558-76.040 74.773-0.017 41.296 33.446 74.786 74.742 74.803s74.786-33.446 74.803-74.742c0-0.019 0-0.041 0-0.061 1.055-18.816-5.844-37.211-19.011-50.693zM930.233 259.169c0-34.218-32.951-39.287-48.158-39.287h-53.228v266.138h53.228c27.881 0 48.158-39.287 48.158-68.435v-158.415z" />
<glyph unicode="&#xe91f;" glyph-name="operation" d="M1011.474 257.19l-53.074 11.81c-3.636 10.798-7.467 19.821-11.882 28.497l0.552-1.195 29.2 45.906c1.568 2.431 2.5 5.4 2.5 8.587 0 4.418-1.791 8.418-4.686 11.313l-55.964 55.964c-2.895 2.895-6.895 4.686-11.313 4.686-3.187 0-6.156-0.932-8.65-2.538l0.063 0.038-45.906-29.2c-7.484 3.867-16.511 7.701-25.833 10.9l-1.481 0.442-11.8 53.082c-1.65 7.216-8.014 12.518-15.617 12.518-0.004 0-0.008 0-0.012 0h-79.143c-7.606 0-13.972-5.308-15.597-12.421l-0.021-0.107-11.8-53.082c-10.798-3.635-19.822-7.466-28.498-11.881l1.194 0.551-45.906 29.2c-2.431 1.568-5.4 2.5-8.587 2.5-4.418 0-8.418-1.791-11.313-4.686l-55.964-55.964c-2.895-2.895-4.686-6.895-4.686-11.313 0-3.187 0.932-6.156 2.538-8.65l-0.038 0.063 29.2-45.906c-3.869-7.482-7.706-16.505-10.908-25.823l-0.442-1.481-53.082-11.8c-7.216-1.65-12.518-8.014-12.518-15.617 0-0.004 0-0.008 0-0.012v0.001-79.144c0-7.605 5.306-13.971 12.419-15.597l0.107-0.021 53.084-11.8c3.635-10.798 7.466-19.822 11.881-28.498l-0.551 1.194-29.2-45.906c-1.568-2.431-2.5-5.4-2.5-8.587 0-4.418 1.791-8.418 4.686-11.313l55.964-55.964c2.895-2.895 6.895-4.686 11.313-4.686 3.187 0 6.156 0.932 8.65 2.538l-0.063-0.038 45.906 29.2c7.483-3.87 16.506-7.708 25.825-10.908l1.479-0.442 11.8-53.082c1.65-7.216 8.014-12.518 15.617-12.518 0.004 0 0.008 0 0.012 0h79.143c7.605 0 13.971 5.306 15.597 12.419l0.021 0.107 11.8 53.082c10.801 3.639 19.824 7.47 28.501 11.885l-1.197-0.553 45.906-29.2c2.431-1.568 5.4-2.5 8.587-2.5 4.418 0 8.418 1.791 11.313 4.686l55.964 55.964c2.895 2.895 4.686 6.895 4.686 11.313 0 3.187-0.932 6.156-2.538 8.65l0.038-0.063-29.2 45.906c3.869 7.482 7.706 16.505 10.908 25.823l0.442 1.481 53.082 11.8c7.216 1.65 12.518 8.014 12.518 15.617 0 0.004 0 0.008 0 0.012v-0.001 79.144c0 7.605-5.306 13.971-12.419 15.597l-0.107 0.021zM992 175.26l-49.622-11.038c-5.765-1.315-10.28-5.608-11.89-11.139l-0.028-0.113c-4.202-14.586-9.603-27.266-16.318-39.102l0.462 0.884c-1.277-2.247-2.030-4.936-2.030-7.801 0-3.186 0.931-6.155 2.537-8.649l-0.038 0.063 27.3-42.92-37.818-37.818-42.92 27.3c-2.431 1.567-5.4 2.499-8.586 2.499-2.865 0-5.555-0.753-7.881-2.072l0.079 0.041c-10.952-6.254-23.632-11.655-36.957-15.543l-1.261-0.315c-5.642-1.638-9.935-6.152-11.229-11.809l-0.021-0.107-11.038-49.622h-53.48l-11.038 49.62c-1.314 5.766-5.608 10.282-11.139 11.892l-0.113 0.028c-14.586 4.202-27.266 9.603-39.102 16.318l0.884-0.462c-2.247 1.277-4.936 2.030-7.801 2.030-3.186 0-6.155-0.931-8.649-2.537l0.063 0.038-42.92-27.3-37.818 37.818 27.3 42.92c1.568 2.431 2.5 5.401 2.5 8.588 0 2.865-0.753 5.554-2.072 7.88l0.041-0.079c-6.256 10.953-11.657 23.634-15.545 36.96l-0.315 1.26c-1.639 5.642-6.152 9.933-11.809 11.227l-0.107 0.021-49.622 11.038v53.48l49.622 11.038c5.765 1.315 10.28 5.608 11.89 11.139l0.028 0.113c4.202 14.585 9.603 27.265 16.319 39.101l-0.461-0.883c1.277 2.246 2.029 4.935 2.029 7.799 0 3.187-0.932 6.156-2.538 8.65l0.038-0.063-27.3 42.92 37.818 37.818 42.92-27.3c2.431-1.568 5.401-2.5 8.588-2.5 2.865 0 5.554 0.753 7.88 2.072l-0.079-0.041c10.953 6.255 23.634 11.657 36.96 15.545l1.26 0.315c5.642 1.639 9.934 6.154 11.227 11.811l0.021 0.107 11.038 49.62h53.48l11.038-49.622c1.315-5.765 5.608-10.28 11.139-11.89l0.113-0.028c14.586-4.203 27.266-9.604 39.102-16.319l-0.884 0.461c2.246-1.277 4.935-2.029 7.799-2.029 3.187 0 6.156 0.932 8.65 2.538l-0.063-0.038 42.92 27.3 37.818-37.818-27.3-42.92c-1.567-2.431-2.499-5.4-2.499-8.586 0-2.865 0.753-5.555 2.072-7.881l-0.041 0.079c6.253-10.953 11.654-23.633 15.543-36.959l0.315-1.261c1.639-5.642 6.152-9.933 11.809-11.227l0.107-0.021 49.622-11.038zM758 336.218c-74.127 0-134.218-60.091-134.218-134.218s60.091-134.218 134.218-134.218c74.127 0 134.218 60.091 134.218 134.218v0c-0.086 74.092-60.126 134.132-134.21 134.218h-0.008zM758 99.782c-56.453 0-102.218 45.765-102.218 102.218s45.765 102.218 102.218 102.218c56.453 0 102.218-45.765 102.218-102.218v0c-0.066-56.427-45.791-102.152-102.212-102.218h-0.006zM0.14 683.652c1.726-51.932 17.992-99.74 44.827-139.882l-0.611 0.972c0.544-0.818 1.115-1.532 1.743-2.193l-0.007 0.007c29.984-31.577 51.584-71.391 61.063-115.699l0.285-1.589c4.217-20.447 20.238-36.225 40.484-40.027l0.316-0.049v-32.336c0.029-22.255 14.16-41.203 33.936-48.388l0.358-0.114c8.060-39.301 42.362-68.441 83.47-68.441s75.41 29.141 83.376 67.892l0.094 0.55c20.134 7.299 34.265 26.247 34.294 48.499v32.347c20.562 3.85 36.584 19.629 40.743 39.746l0.057 0.33c9.763 45.897 31.364 85.711 61.447 117.393l-0.099-0.105c0.621 0.654 1.192 1.368 1.7 2.128l0.036 0.058c27.79 41.528 44.35 92.615 44.35 147.57 0 147.21-118.83 266.666-265.802 267.68l-0.097 0.001h-0.2c-147.071-1.009-265.904-120.466-265.904-267.678 0-3.049 0.051-6.086 0.152-9.11l-0.012 0.44zM266 267.916c-0.003 0-0.007 0-0.011 0-22.263 0-41.327 13.699-49.222 33.128l-0.128 0.356h98.72c-8.022-19.785-27.086-33.484-49.349-33.484-0.004 0-0.007 0-0.011 0h0.001zM351.764 352.856c-0.011-10.74-8.714-19.443-19.453-19.456h-132.621c-10.74 0.013-19.443 8.716-19.454 19.455v31.447h171.528zM208.020 614.2h-22.36c-12.349 0-22.36 10.011-22.36 22.36s10.011 22.36 22.36 22.36c12.349 0 22.36-10.011 22.36-22.36v0zM240.020 416.296v165.904h51.962v-165.904zM63.054 809.256c41.211 70.878 116.493 117.956 202.834 118.743l0.112 0.001c129.44-0.955 234.002-106.106 234.002-235.68 0-47.912-14.297-92.485-38.857-129.686l0.547 0.882c-33.418-35.554-57.509-80.246-68.138-129.928l-0.322-1.798c-1.738-8.881-9.459-15.491-18.723-15.491-0.114 0-0.227 0.001-0.34 0.003h-50.183v165.898h22.354c0.001 0 0.001 0 0.002 0 30.022 0 54.36 24.338 54.36 54.36s-24.338 54.36-54.36 54.36c-30.022 0-54.36-24.338-54.36-54.36v0-22.36h-51.962v22.36c0 30.022-24.338 54.36-54.36 54.36s-54.36-24.338-54.36-54.36c0-30.022 24.338-54.36 54.36-54.36h22.36v-165.904h-50.2c-0.096-0.002-0.208-0.003-0.321-0.003-9.265 0-16.987 6.61-18.705 15.372l-0.020 0.121c-10.951 51.48-35.042 96.17-68.593 131.867l0.133-0.143c-24.136 36.271-38.513 80.842-38.513 128.771 0 43.058 11.603 83.406 31.853 118.087l-0.6-1.113zM323.982 614.2v22.36c0 12.349 10.011 22.36 22.36 22.36s22.36-10.011 22.36-22.36c0-12.349-10.011-22.36-22.36-22.36-0.001 0-0.001 0-0.002 0v0zM518.828 18.758c0-8.837-7.163-16-16-16v0h-246.34c-8.837 0-16 7.163-16 16v0 134.88l-25.822-25.82c-2.882-2.82-6.831-4.56-11.186-4.56-8.837 0-16 7.163-16 16 0 4.355 1.74 8.304 4.563 11.189l53.131 53.133c2.895 2.896 6.896 4.687 11.314 4.687s8.419-1.791 11.314-4.687l53.134-53.136c2.971-2.907 4.814-6.958 4.814-11.44 0-8.837-7.163-16-16-16-4.481 0-8.532 1.842-11.437 4.811l-25.825 25.823v-118.874h230.34c8.837 0 16-7.163 16-16v0zM751.512 550.626v229.598h-193.358c-8.837 0-16 7.163-16 16s7.163 16 16 16v0h209.358c8.837 0 16-7.163 16-16v0-245.6l25.822 25.822c2.882 2.82 6.831 4.56 11.186 4.56 8.837 0 16-7.163 16-16 0-4.355-1.74-8.304-4.563-11.189l-53.131-53.131c-2.895-2.896-6.896-4.687-11.314-4.687s-8.419 1.791-11.314 4.687l-53.134 53.134c-2.937 2.902-4.756 6.93-4.756 11.383 0 8.837 7.163 16 16 16 4.452 0 8.48-1.818 11.38-4.753l0.002-0.002z" />
<glyph unicode="&#xe920;" glyph-name="pie-chart" d="M469.334 433.962v462.038c0 11.776-9.558 21.334-21.334 21.334-247.040 0-448-220.118-448-490.666s220.118-490.668 490.666-490.668c121.046 0 186.538 21.93 269.568 90.198 8.918 7.338 10.368 20.438 3.286 29.568l-294.186 378.196zM490.666-21.334c-247.040 0-448 200.96-448 448 0 239.104 170.368 435.072 384 447.402v-447.402c0-4.736 1.578-9.344 4.522-13.098l285.696-367.318c-67.37-51.456-123.562-67.584-226.218-67.584zM533.334 448h469.334c11.776 0 21.334 9.558 21.334 21.334-0.002 270.548-220.12 490.666-490.668 490.666-11.776 0-21.334-9.558-21.334-21.334v-469.334c0-11.774 9.558-21.332 21.334-21.332zM554.666 916.822c230.102-10.838 415.318-196.054 426.154-426.154h-426.154v426.154zM1002.666 405.334h-426.666c-8.192 0-15.744-4.736-19.286-12.16s-2.474-16.214 2.688-22.57l277.334-343.338c3.712-4.65 9.174-7.466 15.104-7.894 0.512-0.042 0.982-0.042 1.494-0.042 5.376 0 10.582 2.048 14.55 5.718 99.198 92.542 156.116 223.358 156.116 358.952 0 11.776-9.558 21.334-21.334 21.334zM855.168 72.362l-234.496 290.304h360.15c-5.248-108.458-50.134-212.18-125.654-290.304z" />
<glyph unicode="&#xe921;" glyph-name="menu" d="M984 488h-944c-22.092 0-40-17.908-40-40s17.908-40 40-40h944c22.092 0 40 17.908 40 40s-17.908 40-40 40zM984 808h-944c-22.092 0-40-17.908-40-40s17.908-40 40-40h944c22.092 0 40 17.908 40 40s-17.908 40-40 40zM984 168h-944c-22.092 0-40-17.908-40-40s17.908-40 40-40h944c22.092 0 40 17.908 40 40s-17.908 40-40 40z" />
<glyph unicode="&#xe925;" glyph-name="left-light" d="M313.632 449.76l430.432-430.496-42.592-42.592-473.024 473.088 473.088 473.024 42.592-42.592-430.496-430.432z" />
<glyph unicode="&#xe926;" glyph-name="right-light" d="M795.52 449.696l-473.088-473.088-42.592 42.592 430.432 430.432-430.432 430.56 42.592 42.592 473.088-473.088z" />
<glyph unicode="&#xe944;" glyph-name="share" d="M995.552 784.192c0-96.96-79.84-175.808-178.016-175.808-57.6 0-110.528 27.456-139.872 71.552l-5.536 9.056-300.352-175.328c8.352-20.704 12.736-42.592 12.736-64.928 0-18.624-3.040-36.928-9.696-52.096l-4.448-8.704 297.024-181.92c7.2 11.072 15.264 21.12 24.288 30.048 69.408 68.576 182.336 68.576 251.744 0 33.632-33.184 52.16-77.344 52.16-124.32s-18.528-91.104-52.16-124.32c-33.76-33.344-78.944-51.424-125.888-51.424s-92.096 18.048-125.888 51.424c-33.6 33.184-52.128 77.344-52.128 124.32 0 17.888 2.784 35.552 9.056 50.24l4.192 8.416-297.44 182.144c-32.768-49.28-88.224-79.616-148.832-79.616-98.176 0-178.016 78.88-178.016 175.808s79.872 175.808 178.016 175.808c56.8 0 109.152-26.656 138.624-69.76l5.6-8.832 300.736 175.616c-7.808 20.128-11.872 41.184-11.872 62.624 0 96.96 79.84 175.808 178.016 175.808s178.016-78.88 178.016-175.808zM817.536 918.72c-75.136 0-136.224-60.352-136.224-134.56s61.12-134.56 136.224-134.56c75.104 0 136.224 60.352 136.224 134.56s-61.12 134.56-136.224 134.56zM206.496 583.264c-75.104 0-136.224-60.352-136.224-134.56s61.12-134.56 136.224-134.56 136.224 60.352 136.224 134.56c0 74.176-61.12 134.56-136.224 134.56zM817.536 246.208c-35.936 0-70.496-13.792-96.352-39.328-25.728-25.408-39.904-59.2-39.904-95.136s14.176-69.728 39.904-95.136c53.12-52.448 139.552-52.448 192.64 0 25.76 25.408 39.904 59.2 39.904 95.136s-14.176 69.728-39.904 95.136c-25.856 25.536-60.384 39.328-96.352 39.328z" />
<glyph unicode="&#xe949;" glyph-name="send" d="M630.816 70.752c0.384 0 0.768 0.032 1.152 0.032 5.952 0.416 11.264 3.84 14.016 9.088l376.16 720.992c3.072 5.92 2.336 13.056-1.92 18.208-3.424 4.128-8.544 6.368-13.792 6.208-2.656 0.096-5.376-0.448-7.904-1.632l-985.92-263.712c-7.264-1.952-12.384-8.352-12.576-15.744s4.576-14.048 11.744-16.352l361.728-116.544-32.352-254.56c-0.608-4.768 0.896-9.568 4.128-13.184s7.904-5.664 12.768-5.664c3.744 0 7.392 1.216 10.368 3.456l132.384 99.712 116.064-163.072c3.2-4.48 8.416-7.168 13.984-7.168zM76.448 542.24l825.344 220.768-512.032-321.728-313.312 100.96zM416.288 418.144l547.264 343.872-334.976-642.112-212.288 298.24zM379.968 192.256l23.552 185.312 77.664-109.088-101.216-76.224z" />
<glyph unicode="&#xe994;" glyph-name="successful" d="M512 960c282.784 0 512-229.216 512-512s-229.216-512-512-512c-282.784 0-512 229.216-512 512s229.216 512 512 512zM512 911.808c-256.16 0-463.808-207.648-463.808-463.808s207.648-463.808 463.808-463.808c256.16 0 463.808 207.648 463.808 463.808s-207.648 463.808-463.808 463.808zM405.76 245.664l388.256 387.808c8.704 8.672 22.784 8.672 31.488 0s8.704-22.752 0-31.456l-403.968-403.52c-4.352-4.352-10.048-6.496-15.744-6.496s-11.392 2.176-15.744 6.496l-191.488 191.264c-8.704 8.704-8.704 22.752 0 31.456s22.784 8.672 31.488 0l175.744-175.552z" />
<glyph unicode="&#xe9b7;" glyph-name="report-new" horiz-adv-x="960" d="M970.528 776.48l-178.816 178.816c-3.104 3.008-7.232 4.672-11.552 4.704h-406.4c-26.912-0.096-48.704-21.856-48.768-48.768v-98.336c-181.888-8.512-324.992-158.464-324.992-340.576s143.104-332.032 324.992-340.576v-98.336c0.064-26.912 21.856-48.704 48.768-48.768h552.736c26.912 0.096 48.704 21.856 48.768 48.768v731.52c-0.032 4.32-1.728 8.448-4.704 11.552zM942.72 33.376c0-8.992-7.264-16.256-16.256-16.256h-552.736c-8.992 0-16.256 7.264-16.256 16.256v98.336c181.792 8.768 324.8 158.56 325.12 340.576 0 8.992-7.264 16.256-16.256 16.256h-308.864v422.656c0 8.992 7.264 16.256 16.256 16.256h390.144v-130.048c0.096-26.912 21.856-48.704 48.768-48.768h130.048v-715.264zM796.416 904.576l123.392-123.392h-107.136c-8.992 0-16.256 7.264-16.256 16.256v107.136zM406.272 878.72c-8.992 0-16.256-7.264-16.256-16.256v-325.12c0-8.992 7.264-16.256 16.256-16.256h325.12c8.992 0 16.256 7.264 16.256 16.256-0.192 188.448-152.928 341.184-341.376 341.376zM422.528 553.6v292.128c157.696-8.48 283.648-134.432 292.128-292.128h-292.128zM32.352 472.32c0.224 164.16 128.672 299.552 292.608 308.384v-301.728l-212.96-212.96c-51.264 56.48-79.648 130.016-79.648 206.304zM910.208 683.648h-130.048v-32.512h130.048v32.512zM780.16 586.112h130.048v-32.512h-130.048v32.512zM910.208 488.576h-130.048v-32.512h130.048v32.512zM134.944 243.104l212.96 212.96h301.728c-6.048-118.88-80-223.68-190.016-269.184s-236.384-23.616-324.672 56.224zM628.736 251.936c22.656 54.688 76 90.304 135.168 90.304 80.736-0.128 146.176-65.568 146.304-146.304 0-59.168-35.648-112.544-90.304-135.168s-117.6-10.144-159.456 31.712c-41.856 41.856-54.368 104.768-31.712 159.456zM650.112 195.936c0-62.848 50.944-113.792 113.792-113.792 62.816 0.064 113.728 50.976 113.792 113.792 0 62.848-50.944 113.792-113.792 113.792s-113.792-50.944-113.792-113.792zM731.392 170.176l-37.28 37.28-22.976-22.976 48.768-48.768c6.336-6.336 16.64-6.336 22.976 0l97.536 97.536-22.976 22.976-86.048-86.048z" />
<glyph unicode="&#xe9ce;" glyph-name="dig-info" d="M779.040 960c-11.040 0-20-9.152-20-20.448s8.96-20.448 20-20.448c113.024 0 204.96-94.208 204.96-209.984 0-11.296 8.96-20.448 20-20.448s20 9.152 20 20.448c0 138.336-109.888 250.848-244.96 250.848zM780.096 836.128c0 11.296 8.96 20.448 20 20.448 67.776 0 122.944-56.48 122.944-125.888 0-11.296-8.96-20.448-20-20.448s-20 9.152-20 20.448c0 46.88-37.216 84.992-82.944 84.992-11.040 0-20 9.152-20 20.448zM130.4 714.432c84.096 86.144 195.904 133.568 314.848 133.568s230.752-47.424 314.848-133.568c84.096-86.112 130.4-200.64 130.4-322.432s-46.304-236.288-130.4-322.432c-84.096-86.144-195.904-133.568-314.848-133.568-68.416 0-133.952 15.424-194.848 45.856l-87.296-30.4c-6.4-2.24-13.472-0.992-18.784 3.264s-8.16 10.976-7.584 17.856l7.136 83.744c-91.552 86.272-143.872 208.032-143.872 335.68 0 121.792 46.304 236.288 130.4 322.432zM260.992 22.176c57.344-30.048 119.36-45.28 184.256-45.28 223.456 0 405.248 186.24 405.248 415.136s-181.792 415.104-405.248 415.104-405.248-186.208-405.248-415.104c0-119.392 50.272-233.088 137.888-311.968 4.768-4.288 7.264-10.656 6.72-17.12l-5.344-62.656 66.176 23.040c2.112 0.736 4.288 1.088 6.464 1.088 3.136 0 6.272-0.768 9.12-2.24zM447.584 711.712h-2.688c-50.88 0-92.288-42.304-92.288-94.336s41.408-94.336 92.288-94.336h2.688c50.88 0 92.288 42.304 92.288 94.336s-41.408 94.336-92.288 94.336zM447.584 563.936h-2.688c-28.832 0-52.288 23.968-52.288 53.44s23.456 53.44 52.288 53.44h2.688c28.832 0 52.288-23.968 52.288-53.44s-23.456-53.44-52.288-53.44zM519.872 486.432h-147.296c-11.040 0-20-9.152-20-20.448v-373.28c0-11.296 8.96-20.448 20-20.448h147.296c11.040 0 20 9.152 20 20.448v373.28c0 11.296-8.96 20.448-20 20.448zM499.872 113.152h-107.296v332.416h107.296v-332.416z" />
<glyph unicode="&#xe9cf;" glyph-name="dig-list" d="M72.672 960h936.224c8.352 0 15.104-6.784 15.104-15.136v-993.76c0-8.352-6.752-15.136-15.104-15.136h-936.224c-8.352 0-15.104 6.784-15.104 15.136v145.856h-42.464c-8.352 0-15.104 6.784-15.104 15.136v51.84c0 8.352 6.752 15.136 15.104 15.136h42.464v124.576h-42.464c-8.352 0-15.104 6.784-15.104 15.136v51.84c0 8.352 6.752 15.136 15.104 15.136h42.464v124.576h-42.464c-8.352 0-15.104 6.784-15.104 15.136v51.84c0 8.352 6.752 15.136 15.104 15.136h42.464v124.576h-42.464c-8.352 0-15.104 6.784-15.104 15.136v51.84c0 8.352 6.752 15.136 15.104 15.136h42.464v145.856c0 8.352 6.752 15.136 15.104 15.136zM130.208 96.96h-42.4v-130.72h732.256v963.52h-732.256v-130.72h42.4c4 0 7.84-1.6 10.688-4.416s4.416-6.688 4.416-10.688v-51.84c0-4-1.6-7.872-4.416-10.688s-6.688-4.416-10.688-4.416h-42.4v-124.576h42.4c4 0 7.84-1.6 10.688-4.416s4.416-6.688 4.416-10.688v-51.84c0-4-1.6-7.872-4.416-10.688s-6.688-4.416-10.688-4.416h-42.4v-124.576h42.4c4 0 7.84-1.6 10.688-4.416s4.416-6.688 4.416-10.688v-51.84c0-4-1.6-7.872-4.416-10.688s-6.688-4.448-10.688-4.416h-42.4v-124.576h42.4c4 0 7.84-1.6 10.688-4.448s4.416-6.688 4.416-10.688v-51.84c0-4-1.6-7.84-4.416-10.688s-6.688-4.416-10.688-4.416zM850.24-33.76h56.64v963.52h-56.64v-963.52zM937.088-33.76h56.704v963.52h-56.704v-963.52zM627.616 286.336h-347.52c-8.352 0-15.104 6.784-15.104 15.136v89.536c0.096 56.608 45.92 102.432 102.464 102.496h18.976v20.672c-36.192 20.832-60.608 57.408-65.92 98.88-0.48-0.032-0.896-0.224-1.344-0.224-0.768 0-1.536 0.064-2.304 0.192-7.136 1.088-12.512 7.136-12.8 14.368-3.040 77.728 8.224 125.536 36.448 154.912 24.064 25.088 60.096 36.8 113.344 36.8s89.28-11.68 113.408-36.8c28.256-29.408 39.488-77.184 36.448-154.912-0.128-4.128-1.984-8.032-5.088-10.752s-7.2-4.064-11.296-3.648c-5.344-41.44-29.76-78.016-65.952-98.816v-20.64h18.976c56.512-0.064 102.304-45.92 102.368-102.496v-89.536c0-8.352-6.752-15.136-15.104-15.136zM453.92 788.832c-44.48 0-73.6-8.736-91.616-27.52l-0.032-0.032c-14.080-14.656-22.688-36.608-26.4-68.416 11.2 10.496 26.368 15.68 48.704 11.648 34.112-6.112 95.584 10.944 104.448 16.512 2.56 2.080 5.76 3.2 9.056 3.2 1.728 0 3.456-0.288 5.12-0.864 4.864-1.824 8.448-5.984 9.504-11.040 4.288-18.464 37.824-44.16 61.344-59.040-0.128 54.176-9.184 88-28.48 108.096-18.048 18.784-47.168 27.52-91.616 27.52zM115.104 768.8h-84.864v-21.6h84.864v21.6zM349.504 661.984v-31.2c-0.128-40.032 22.688-76.576 58.688-93.984 28.896-13.92 62.56-13.92 91.456 0 34.976 16.928 57.568 51.968 58.56 90.848-22.464 13.888-53.664 36.608-68.128 61.28-27.552-9.696-78.528-20.064-110.88-14.208-14.56 2.624-22.112 0.32-29.696-12.736zM115.104 562.144h-84.864v-21.6h84.864v21.6zM491.168 501.504c-24.32-7.232-50.176-7.232-74.496 0v-36.992c0-20.608 16.672-37.28 37.248-37.28s37.248 16.704 37.248 37.28v36.992zM367.456 463.232c-39.872-0.032-72.192-32.352-72.256-72.224v-74.4h317.312v74.4c-0.032 39.872-32.32 72.192-72.16 72.224h-19.072c-0.576-36.832-30.592-66.4-67.392-66.4s-66.816 29.568-67.392 66.4h-19.072zM115.072 355.456h-84.864v-21.6h84.864v21.6zM627.648 199.040h-347.552c-8.352 0-15.104-6.784-15.104-15.136s6.752-15.136 15.104-15.136h347.552c8.352 0 15.104 6.784 15.104 15.136s-6.752 15.136-15.104 15.136zM115.104 148.8h-84.864v-21.6h84.864v21.6zM280.096 107.232h347.552c8.352 0 15.104-6.784 15.104-15.136s-6.752-15.136-15.104-15.136h-347.552c-8.352 0-15.104 6.784-15.104 15.136s6.752 15.136 15.104 15.136z" />
<glyph unicode="&#xea22;" glyph-name="dig-references" d="M938.656 436.384l82.080-115.040c2.144-2.848 3.296-6.336 3.232-9.888v-358.4c0-9.44-7.648-17.056-17.056-17.056h-989.856c-9.44 0-17.056 7.648-17.056 17.056v358.4c-0.064 3.552 1.088 7.040 3.232 9.888l82.080 115.040v506.528c0 9.44 7.648 17.056 17.056 17.056h512c4.512-0.032 8.864-1.792 12.128-4.96l63.136-63.328h163.68c9.408 0 17.056-7.648 17.056-17.056v-51.2h51.2c9.408 0 17.056-7.648 17.056-17.056v-370.016zM597.344 925.856h-477.856v-597.344h204.8c9.44 0 17.056-7.648 17.056-17.056 0.096-28.256 22.944-51.104 51.2-51.2h238.944c28.256 0.096 51.104 22.976 51.2 51.2 0 9.44 7.648 17.056 17.056 17.056h68.256v426.656h-119.456c-28.256 0.096-51.104 22.944-51.2 51.2v119.456zM743.936 789.344l-112.48 112.48v-95.392c0-9.44 7.648-17.056 17.056-17.056h95.392zM836.256 328.544v529.056h-112.48l73.376-73.216c3.136-3.264 4.928-7.584 4.96-12.128v-443.744h34.144zM904.544 789.344h-34.144v-460.8h34.144v460.8zM529.056 772.288h-170.656v-34.144h170.656v34.144zM699.744 669.888h-512v-34.144h512v34.144zM187.744 567.456h512v-34.144h-512v34.144zM699.712 465.056h-204.8v-34.144h204.8v34.144zM85.344 328.544v49.152l-35.168-49.152h35.168zM973.824 328.544l-35.168 49.152v-49.152h35.168zM34.144-29.856h955.712v324.256h-274.752c-8.16-39.712-43.104-68.224-83.616-68.256h-238.944c-40.544 0.064-75.456 28.576-83.616 68.256h-274.784v-324.256zM512 174.944c-37.696 0-68.256-30.56-68.256-68.256s30.56-68.256 68.256-68.256c37.696 0 68.256 30.56 68.256 68.256s-30.56 68.256-68.256 68.256zM512 72.544c-18.848 0-34.144 15.264-34.144 34.144s15.296 34.144 34.144 34.144c18.848 0 34.144-15.264 34.144-34.144s-15.296-34.144-34.144-34.144z" />
<glyph unicode="&#xe9161;" glyph-name="BBBGHS" horiz-adv-x="928" d="M689.216 960c-123.296-0.224-144.416-0.224-456.576-0.224h-232.64v-1023.776h921.6v1024h-232.384zM41.92-25.344v946.656h188.416v-58.016h460.928v58.016h188.416v-946.656h-837.76zM104.8 749.12v-252.8h251.296v252.8h-251.296zM817.024 749.12h-398.048v-42.176h398.048v42.176zM314.176 538.528h-167.456v168.448h167.456v-168.448zM419.008 643.968h398.048v-42.176h-398.048v42.176zM817.024 538.528h-398.048v-42.176h398.048v42.176zM104.8 311.712h251.296v-42.176h-251.296v42.176zM591.552 133.76l190.464 172.544 28.128-31.36-228.544-206.752-75.68 127.296 35.808 21.6 49.856-83.328zM356.096 206.272h-251.296v-42.176h251.296v42.176zM104.8 100.832h251.296v-42.176h-251.296v42.176z" />
<glyph unicode="&#xe9231;" glyph-name="BCKQCT" d="M153.6 481.856c-16.736 0-33.088 4.928-47.072 14.144-39.328 25.984-50.112 78.88-24.128 118.176s78.944 50.080 118.24 24.128l120.736 120.704c-16.096 24.288-18.656 55.136-6.784 81.728 19.168 43.040 69.6 62.4 112.672 43.232s62.432-69.568 43.264-112.608l99.776-76.672c0.32 0.32 0.48 0.672 0.832 0.992 28.672 28.64 73.568 33.184 107.392 10.816l120.768 120.704c-18.944 28.64-18.944 65.792 0 94.432 26.080 39.392 79.2 50.208 118.624 24.128s50.208-79.168 24.128-118.56c-26.080-39.392-79.2-50.208-118.624-24.128l-120.768-120.704c15.296-23.008 18.496-52 8.576-77.792-16.896-43.968-66.272-65.92-110.272-49.024s-65.952 66.24-49.056 110.208l-101.248 77.792c-12.032-11.264-27.072-18.784-43.328-21.632-4.96-0.864-9.952-1.312-14.976-1.312-16.672 0.032-32.928 4.992-46.784 14.272l-120.8-120.736c9.216-13.952 14.144-30.304 14.144-47.040 0-47.104-38.208-85.28-85.344-85.28zM921.6 874.176c0 28.256-22.912 51.168-51.2 51.168s-51.2-22.912-51.2-51.168c0-28.256 22.912-51.168 51.2-51.168s51.2 22.912 51.2 51.168zM350.592 835.296v0c-16.224-23.136-10.592-55.072 12.576-71.264s55.072-10.592 71.296 12.576 10.592 55.072-12.576 71.264c-8.576 6.016-18.784 9.248-29.28 9.248-3.008 0-6.016-0.256-8.992-0.768-13.376-2.336-25.28-9.92-33.056-21.056zM631.456 686.528c-13.6 0-26.624-5.408-36.224-15.008-19.968-20-19.968-52.384 0.032-72.384 20.256-19.296 52.128-19.296 72.384 0 9.6 9.6 15.008 22.624 15.008 36.192 0 28.256-22.912 51.168-51.2 51.168zM117.408 603.328l-0.032-0.032c-20-20-19.968-52.384 0.032-72.384 20.256-19.296 52.128-19.296 72.384 0 20 19.968 20 52.384 0.032 72.384s-52.416 20-72.416 0.032zM972.8 601.248v-631.136h51.2v-34.112h-1024v34.112h51.2v324.096c0 9.408 7.648 17.056 17.056 17.056h170.656c9.44 0 17.056-7.648 17.056-17.056v-324.096h34.144v562.912c0 9.408 7.648 17.056 17.056 17.056h170.656c9.44 0 17.056-7.648 17.056-17.056v-562.912h34.144v392.32c0 9.408 7.648 17.056 17.056 17.056h170.656c9.44 0 17.056-7.648 17.056-17.056v-392.32h34.144v631.136c0 9.408 7.648 17.056 17.056 17.056h170.656c9.408 0 17.056-7.648 17.056-17.056zM802.144-29.888h136.544v614.080h-136.544v-614.080zM324.256-29.888h136.544v545.856h-136.544v-545.856zM563.2-29.888h136.544v375.264h-136.544v-375.264zM85.344-29.888h136.544v307.040h-136.544v-307.040z" />
<glyph unicode="&#xe9251;" glyph-name="BCNXVT" d="M467.616 266.016c10.752 0 19.456 8.32 19.456 19.136s-8.704 19.168-19.456 19.168h-429.664v617.344h805.376v-160.192c0-10.848 8.224-19.648 18.976-19.648s18.944 8.8 18.944 19.648v176.8c0 10.848-7.296 21.696-18.048 21.696h-843.136c-10.752 0-20.096-10.848-20.096-21.696v-654.848c0-10.848 9.344-17.408 20.096-17.408h447.52zM182.24 688.416c6.496 0 12.576 3.296 16.192 8.768l77.824 117.856c5.952 9.024 3.552 21.216-5.408 27.232s-21.056 3.584-26.976-5.44l-61.632-93.344-35.68 54.048c-5.984 9.024-18.048 11.488-26.976 5.44-8.96-6.016-11.36-18.208-5.408-27.232l51.872-78.592c3.616-5.472 9.696-8.768 16.192-8.768zM848.768 687.744c78.272-24.128 139.232-85.76 163.136-164.736 24.8-81.92 11.040-167.072-37.728-233.664-48-65.44-124.672-104.544-205.216-104.544-97.28 0-192.128 52.256-231.936 146.688-24.8 58.72-29.536 120.064-14.816 176.576l-36.416 12.576c-9.856 3.424-15.36 14.176-12.352 24.32 38.688 131.2 158.24 217.088 288.672 217.088 10.304 0 18.688-9.568 19.168-19.968l2.048-42.496c21.888-1.216 43.872-5.184 65.44-11.872zM285.888 683.264c-10.752 0-19.36 13.28-19.264 24.096s8.576 22.72 19.648 22.72h194.56c10.72 0 19.36-11.872 19.264-22.72-0.096-10.784-8.8-24.096-19.424-24.096h-194.752zM743.328 719.84c-104.832-6.336-191.584-74.592-226.656-168.128l238.688-82.048-12.064 250.176zM935.008 302.624c2.688 3.296 5.344 6.656 7.872 10.144 41.376 56.448 52.992 128.896 31.84 198.784-20.16 66.496-71.488 118.304-137.312 138.624-17.312 5.376-34.784 8.672-52.192 9.984 0 0 10.624-215.872 10.656-217.056l139.104-140.448zM182.24 439.584c6.496 0 12.576 3.264 16.192 8.736l77.824 117.888c5.952 9.024 3.552 21.216-5.408 27.232s-21.056 3.552-26.976-5.472l-61.632-93.344-35.68 54.048c-5.984 9.024-18.048 11.488-26.976 5.472s-11.36-18.208-5.408-27.232l51.872-78.592c3.616-5.472 9.696-8.736 16.192-8.736zM572.8 346.944c3.712-8.704 8.064-17.184 12.96-25.248l151.2 112.512-177.728 61.184c-11.68-47.52-7.296-99.008 13.568-148.48zM441.376 436.32h-156.128c-10.72 0-19.36 14.752-19.264 25.6 0.096 10.784 8.8 25.472 19.424 25.472h156.32c10.752 0 19.36-14.624 19.264-25.472-0.128-10.784-8.8-25.6-19.456-25.6h-0.192zM768.96 224.16c50.848 0 99.936 18.4 138.496 50.688 0.736 0.64-135.36 136.672-135.36 136.672s-163.904-119.776-162.72-121.024c40.8-44.032 101.792-66.336 159.616-66.336zM936.064 29.28c-9.824 11.008-61.024 65.792-105.248 65.792h-568.736v36.896h244.448c10.72 0 19.488 8.288 19.488 19.168s-8.736 19.136-19.488 19.136h-265.92c-10.752 0-20.704-6.976-20.704-17.824v-57.376h-128.48c-10.752 0-19.424-8.832-19.424-19.68v-20.064h-51.904c-10.72 0-19.424-9.856-19.424-20.736v-52.416c0-10.848 8.736-20.512 19.424-20.512h51.904v-5.984c0-10.848 8.672-19.68 19.424-19.68h739.392c44.224 0 95.424 54.784 105.248 65.792 3.2 3.616 4.992 9.504 4.992 14.336s-1.792 9.536-4.992 13.152zM110.912-24.704v80.448h108.992v-80.448h-108.992zM830.816-24.704h-568.736v80.448h568.736c16.416 0 43.968-20.704 64.192-40.224-20.224-19.552-47.744-40.224-64.192-40.224zM38.592 0v17.024h33.408v-17.024h-33.408z" />
<glyph unicode="&#xe9261;" glyph-name="BCTD" d="M1024 213.664c0-8.288-6.72-15.008-15.008-15.008s-15.008 6.72-15.008 15.008v529.152c0 2.784-0.288 5.504-0.832 8.192h-128.416c-27.392 0-49.696 22.304-49.696 49.696v128.48c-2.656 0.544-5.408 0.832-8.192 0.832h-480.896c-22.592 0-40.96-18.368-40.96-40.96v-584.256c0-6.848 5.568-12.416 12.384-12.416l148.192-0.032c25.312 0 45.888-20.608 45.888-45.92v-19.776c0-14.976-7.2-28.288-18.304-36.672 4.736-7.232 7.52-15.872 7.52-25.152v-19.776c0-16.48-8.704-30.944-21.792-39.040 3.84-6.72 6.048-14.464 6.048-22.752v-19.776c0-17.76-10.112-33.184-24.896-40.8 0.416-0.768 0.8-1.6 1.152-2.4h511.776c22.592 0 40.96 18.368 40.96 40.96v81.6c0 8.288 6.72 15.008 15.008 15.008s15.008-6.72 15.008-15.008v-81.6c0-39.136-31.84-70.976-70.944-70.976h-507.84v-8.352c0-25.312-20.576-45.92-45.888-45.92h-87.008c-83.616 0-134.656 32.16-160.16 40.32-10.656 4.256-19.264 4.096-25.792 3.968-1.952-0.032-3.712-0.064-5.312 0-7.584-25.568-31.264-44.288-59.264-44.288-34.080 0-61.792 27.744-61.792 61.824v257.312c0 34.080 27.712 61.824 61.792 61.824 31.488 0 57.504-23.68 61.312-54.144 9.056 3.616 17.12 9.536 23.232 17.28l22.080 28.064c21.568 27.392 52.544 44.576 86.624 48.48v532.32c0 39.136 31.84 70.976 70.944 70.976h480.896c18.944 0 36.768-7.392 50.176-20.8l146.144-146.208c13.408-13.408 20.768-31.232 20.768-50.208v-529.152zM845.088 908.768v-108.064c0-10.848 8.832-19.712 19.68-19.712h108.032l-127.712 127.776zM372.992 756.16c-8.288 0-15.008-6.72-15.008-15.008v-101.888c0-24.352 19.808-44.16 44.16-44.16h148.768c24.352 0 44.16 19.808 44.16 44.16v184.544c0 24.352-19.808 44.192-44.16 44.192h-148.768c-24.352 0-44.16-19.808-44.16-44.192v-12.512c0-8.288 6.72-15.008 15.008-15.008s15.008 6.72 15.008 15.008v12.512c0 7.808 6.336 14.176 14.176 14.176h148.768c7.808 0 14.176-6.368 14.176-14.176v-142.72c-10.368 10.592-22.592 19.296-36.16 25.6 5.76 9.344 9.056 20.352 9.056 32.096 0 33.888-27.552 61.472-61.44 61.472s-61.44-27.584-61.44-61.472c0-11.744 3.328-22.752 9.056-32.096-13.568-6.304-25.824-15.008-36.16-25.6v60.064c0 8.288-6.72 15.008-15.008 15.008zM476.544 770.24c17.344 0 31.456-14.112 31.456-31.456s-14.112-31.456-31.456-31.456c-17.344 0-31.456 14.112-31.456 31.456s14.112 31.456 31.456 31.456zM448.64 684.064c8.384-4.288 17.856-6.72 27.904-6.72s19.52 2.432 27.904 6.72c26.208-8.128 47.456-27.264 58.304-52.576-2.528-3.84-6.88-6.4-11.808-6.4h-148.768c-4.928 0-9.28 2.56-11.84 6.4 10.848 25.28 32.096 44.416 58.304 52.576zM371.936 478.144h535.2c8.288 0 15.008-6.72 15.008-15.008s-6.72-15.008-15.008-15.008h-535.2c-8.288 0-15.008 6.72-15.008 15.008s6.72 15.008 15.008 15.008zM371.936 392.736h535.2c8.288 0 15.008-6.72 15.008-15.008s-6.72-15.008-15.008-15.008h-535.2c-8.288 0-15.008 6.72-15.008 15.008s6.72 15.008 15.008 15.008zM445.632 262.272l-148.192 0.032c-23.36 0-42.4 19.040-42.4 42.4v21.664c-24.8-3.744-47.232-16.672-63.072-36.8l-22.080-28.064c-11.712-14.88-28.096-25.408-46.304-30.048v-221.184c0.896-0.064 2.144-0.032 3.68-0.032 6.912 0.096 19.968 0.288 35.968-6.080 28.192-9.12 72.768-38.208 149.056-38.208h87.008c8.768 0 15.904 7.136 15.904 15.904v19.744c0 8.768-7.136 15.904-15.904 15.904l-130.112 0.032c-8.288 0-15.008 6.72-15.008 15.008s6.72 15.008 15.008 15.008l149.888-0.032c8.768 0 15.904 7.136 15.904 15.904v19.744c0 8.768-7.136 15.904-15.904 15.904h-129.728c-8.288 0-15.008 6.72-15.008 15.008s6.72 15.008 15.008 15.008h145.472c8.768 0 15.904 7.136 15.904 15.904v19.776c0 8.768-7.136 15.904-15.904 15.904h-129.504c-8.288 0-15.008 6.72-15.008 15.008s6.72 15.008 15.008 15.008h140.288c8.768 0 15.904 7.136 15.904 15.904v19.776c0 8.768-7.136 15.904-15.904 15.904zM29.984-2.176c0-17.536 14.272-31.808 31.808-31.808s31.808 14.272 31.808 31.808v257.312c0 17.536-14.272 31.808-31.808 31.808s-31.808-14.272-31.808-31.808v-257.312zM907.136 278.336h-329.216c-8.288 0-15.008-6.72-15.008-15.008s6.72-15.008 15.008-15.008h329.216c8.288 0 15.008 6.72 15.008 15.008s-6.72 15.008-15.008 15.008zM577.92 192.928h329.216c8.288 0 15.008-6.72 15.008-15.008s-6.72-15.008-15.008-15.008h-329.216c-8.288 0-15.008 6.72-15.008 15.008s6.72 15.008 15.008 15.008z" />
<glyph unicode="&#xe9271;" glyph-name="BDGNV" d="M17.408 960h713.632c9.632 0 17.408-7.648 17.408-17.056v-989.856c0-9.408-7.776-17.056-17.408-17.056h-713.632c-9.632 0-17.408 7.648-17.408 17.056v989.856c0 9.408 7.776 17.056 17.408 17.056zM34.816-29.856h678.816v955.744h-678.816v-955.744zM992.128 635.744v-114.304l31.872-46.912-28.96-18.912-34.816 51.2c-1.888 2.784-2.944 6.112-2.944 9.472v102.4h-34.816v-409.6c0-3.104-0.864-6.144-2.496-8.8l-52.224-85.344c-3.136-5.12-8.8-8.288-14.912-8.288s-11.776 3.136-14.912 8.288l-52.224 85.344c-1.632 2.656-2.496 5.696-2.496 8.8v512c0 28.224 23.424 51.2 52.224 51.2h34.816c28.8 0 52.224-22.976 52.224-51.2v-68.256h52.224c9.632 0 17.408-7.648 17.408-17.056zM319.36 751.104l-110.496-92.896-40.896 34.368-22.624-25.92 52.224-43.872c3.232-2.752 7.296-4.128 11.328-4.128s8.064 1.376 11.328 4.128l121.824 102.4-22.656 25.92zM818.048 652.8h69.632v68.256c0 9.408-7.808 17.056-17.408 17.056h-34.816c-9.6 0-17.408-7.648-17.408-17.056v-68.256zM400.32 704h208.864v-34.144h-208.864v34.144zM818.048 413.856h69.632v204.8h-69.632v-204.8zM283.584 528.32l24.608-24.128-57.312-56.192 57.312-56.192-24.608-24.128-57.312 56.192-57.312-56.192-24.608 24.128 57.312 56.192-57.312 56.192 24.608 24.128 57.312-56.192 57.312 56.192zM609.184 465.056h-208.864v-34.144h208.864v34.144zM818.048 243.2h69.632v136.544h-69.632v-136.544zM156.64 294.4h139.232c9.632 0 17.408-7.648 17.408-17.056v-136.544c0-9.408-7.776-17.056-17.408-17.056h-139.232c-9.632 0-17.408 7.648-17.408 17.056v136.544c0 9.408 7.776 17.056 17.408 17.056zM174.048 157.856h104.448v102.4h-104.448v-102.4zM400.32 226.144h208.864v-34.144h-208.864v34.144zM820.96 209.056l31.936-52.16 31.904 52.16h-63.84z" />
</font>
</defs>
</svg>
